<ttFont>
<head>
    <!-- Most of this table will be recalculated by the compiler -->
    <tableVersion value="1.0"/>
    <fontRevision value="1.0"/>
    <checkSumAdjustment value="0xe7dd5aef"/>
    <magicNumber value="0x5f0f3cf5"/>
    <flags value="00000000 00000011"/>
    <unitsPerEm value="2048"/>
    <created value="Thu Aug 15 19:02:27 2019"/>
    <modified value="Fri Aug 16 02:19:08 2019"/>
    <xMin value="-521"/>
    <yMin value="-507"/>
    <xMax value="3715"/>
    <yMax value="2022"/>
<macStyle value="00000000 00000001"/>
    <lowestRecPPEM value="3"/>
    <fontDirectionHint value="2"/>
    <indexToLocFormat value="0"/>
    <glyphDataFormat value="0"/>
  </head>
          <CharString index="0">
            -1014 vlineto
            -89 -19 -22 -134 -18 vhcurveto
            -86 return
          </CharString>
          <CharString index="1">
            rmoveto
            94 callgsubr
            return
          </CharString>
          <CharString index="2">
            -661 82 callsubr
            return
          </CharString>
          <CharString index="3">
            392 17 rmoveto
            357 return
          </CharString>
          <CharString index="4">
            109 261 260 return
          </CharString>
          <CharString index="5">
            455 -343 292 -427 -465 -304 -329 -423 vhcurveto
            return
          </CharString>
          <CharString index="6">
            111 callsubr
            endchar
          </CharString>
          <CharString index="7">
            rmoveto
            18 callsubr
            return
          </CharString>
          <CharString index="8">
            315 -234 209 -329 -331 -242 -219 -315 return
          </CharString>
          <CharString index="9">
            39 callsubr
            endchar
          </CharString>
          <CharString index="10">
            rmoveto
            331 242 219 315 return
          </CharString>
          <CharString index="11">
            156 callsubr
            endchar
          </CharString>
          <CharString index="12">
            rmoveto
            -16 callsubr
            51 callsubr
            endchar
          </CharString>
          <CharString index="13">
            455 51 0 80 -64 18 rlineto
            return
          </CharString>
          <CharString index="14">
            rmoveto
            -43 callsubr
            1203 vlineto
            -81 callsubr
            -48 callsubr
            endchar
          </CharString>
          <CharString index="15">
            -593 4 callsubr
            return
          </CharString>
          <CharString index="16">
            -64 callsubr
            endchar
          </CharString>
          <CharString index="17">
            50 callsubr
            endchar
          </CharString>
          <CharString index="18">
            48 callsubr
            endchar
          </CharString>
          <CharString index="19">
            rmoveto
            30 callsubr
            return
          </CharString>
          <CharString index="20">
            rmoveto
            -690 vlineto
            -386 278 -187 331 371 221 228 356 4 vhcurveto
            7 639 2 118 18 27 126 18 rlinecurve
            86 -439 -86 vlineto
            137 -19 18 -27 2 155 callsubr
            endchar
          </CharString>
          <CharString index="21">
            -472 vlineto
            -215 135 -116 204 174 121 81 106 54 vhcurveto
            -178 vlineto
            return
          </CharString>
          <CharString index="22">
            rmoveto
            -83 callgsubr
            return
          </CharString>
          <CharString index="23">
            79 64 57 79 78 -64 57 -79 hvcurveto
            endchar
          </CharString>
          <CharString index="24">
            661 -25 callsubr
            endchar
          </CharString>
          <CharString index="25">
            rmoveto
            1014 3 callsubr
            return
          </CharString>
          <CharString index="26">
            13 438 rlineto
            -81 hlineto
            return
          </CharString>
          <CharString index="27">
            1147 rmoveto
            385 376 rlineto
            12 return
          </CharString>
          <CharString index="28">
            568 86 vlineto
            -95 13 -14 16 66 vvcurveto
            return
          </CharString>
          <CharString index="29">
            1855 rmoveto
            -219 -143 return
          </CharString>
          <CharString index="30">
            58 78 78 -64 57 -79 return
          </CharString>
          <CharString index="31">
            -86 hlineto
            134 -18 19 -22 -89 vvcurveto
            return
          </CharString>
          <CharString index="32">
            1548 rmoveto
            97 callgsubr
            return
          </CharString>
          <CharString index="33">
            rmoveto
            86 70 60 83 84 -70 60 -86 -87 -70 -60 -84 -83 70 -60 87 hvcurveto
            endchar
          </CharString>
          <CharString index="34">
            1181 rmoveto
            93 75 68 92 93 -75 66 -93 -93 return
          </CharString>
          <CharString index="35">
            86 vlineto
            -143 18 -22 28 98 vvcurveto
            return
          </CharString>
          <CharString index="36">
            rmoveto
            87 69 60 83 84 -69 60 -87 return
          </CharString>
          <CharString index="37">
            -75 -66 -93 -92 75 -68 93 hvcurveto
            return
          </CharString>
          <CharString index="38">
            rmoveto
            329 -797 -79 -131 -124 -178 -85 -109 rlinecurve
            -6 278 vlineto
            161 445 113 274 200 491 58 142 23 19 92 17 rlinecurve
            86 -388 -86 vlineto
            122 -13 15 -27 -46 -126 rrcurveto
            -163 -444 -160 446 -43 124 14 27 123 13 rlinecurve
            86 -603 -86 vlineto
            89 -18 23 -23 51 -126 rrcurveto
            endchar
          </CharString>
          <CharString index="39">
            30 66 38 86 hhcurveto
            119 70 -70 -131 hvcurveto
            -488 vlineto
            -66 -15 -16 -94 -13 vhcurveto
            -86 568 86 vlineto
            -111 14 -18 104 callgsubr
            return
          </CharString>
          <CharString index="40">
            1548 rmoveto
            219 142 218 -142 107 0 -213 300 return
          </CharString>
          <CharString index="41">
            -86 -70 -60 -84 -83 69 -60 87 hvcurveto
            endchar
          </CharString>
          <CharString index="42">
            1544 rmoveto
            -237 -192 return
          </CharString>
          <CharString index="43">
            588 -98 callgsubr
            return
          </CharString>
          <CharString index="44">
            -19 -21 -134 -19 vhcurveto
            -86 return
          </CharString>
          <CharString index="45">
            1562 rmoveto
            79 64 return
          </CharString>
          <CharString index="46">
            1014 26 callgsubr
            -445 -583 445 vlineto
            85 20 20 123 18 vhcurveto
            86 -651 82 callsubr
            -1014 vlineto
            -89 return
          </CharString>
          <CharString index="47">
            rmoveto
            322 -548 rlineto
            -390 -24 callsubr
            684 86 vlineto
            200 callsubr
            endchar
          </CharString>
          <CharString index="48">
            -395 rlineto
            81 hlineto
            46 233 68 47 237 14 47 2 rcurveline
            return
          </CharString>
          <CharString index="49">
            1238 rmoveto
            667 176 -667 hlineto
            return
          </CharString>
          <CharString index="50">
            1548 rmoveto
            365 291 rlineto
            9 return
          </CharString>
          <CharString index="51">
            rmoveto
            620 158 -620 hlineto
            endchar
          </CharString>
          <CharString index="52">
            62 48 39 55 54 -48 40 -62 hvcurveto
            -41 callgsubr
            return
          </CharString>
          <CharString index="53">
            -459 -57 -42 callgsubr
            8 callsubr
            return
          </CharString>
          <CharString index="54">
            -1115 vlineto
            -98 -21 -28 -143 -18 vhcurveto
            -86 return
          </CharString>
          <CharString index="55">
            600 vlineto
            51 -68 callsubr
            return
          </CharString>
          <CharString index="56">
            -75 -60 -55 -75 -75 60 -55 75 hvcurveto
            return
          </CharString>
          <CharString index="57">
            -626 vlineto
            -297 -35 -129 return
          </CharString>
          <CharString index="58">
            -339 vlineto
            -133 -300 rlineto
            return
          </CharString>
          <CharString index="59">
            -60 -275 -67 -45 -269 -11 rrcurveto
            -231 -8 0 590 209 -2 94 -3 27 -38 29 -162 rlinecurve
            77 507 -77 hlineto
            -32 -162 -26 -38 -92 -2 rrcurveto
            -209 -2 0 558 209 -7 247 -10 68 -51 55 -228 rlinecurve
            81 hlineto
            return
          </CharString>
          <CharString index="60">
            rmoveto
            -455 -56 0 -80 64 -18 rlineto
            56 -17 9 -15 -61 vvcurveto
            -92 callsubr
            -79 callsubr
            600 vlineto
            51 return
          </CharString>
          <CharString index="61">
            -242 144 -88 168 125 124 50 54 51 vhcurveto
            101 callgsubr
            return
          </CharString>
          <CharString index="62">
            1147 rmoveto
            108 hlineto
            -144 388 rlineto
            -352 -12 hlineto
            return
          </CharString>
          <CharString index="63">
            -6 hlineto
            -98 -93 -72 -141 -140 -94 72 98 vhcurveto
            6 return
          </CharString>
          <CharString index="64">
            -1157 -76 callsubr
            -107 callsubr
            return
          </CharString>
          <CharString index="65">
            1348 1444 rmoveto
            -1292 hlineto
            -11 return
          </CharString>
          <CharString index="66">
            1600 rmoveto
            601 155 -601 hlineto
            return
          </CharString>
          <CharString index="67">
            -158 -138 vhcurveto
            47 86 callgsubr
          </CharString>
          <CharString index="68">
            rmoveto
            321 86 321 -86 0 73 return
          </CharString>
          <CharString index="69">
            -223 0 -213 -300 rlineto
            return
          </CharString>
          <CharString index="70">
            -119 -106 callsubr
            return
          </CharString>
          <CharString index="71">
            215 -82 callsubr
            return
          </CharString>
          <CharString index="72">
            rmoveto
            -165 135 -106 166 -29 vhcurveto
            -182 -33 -110 -86 -123 vvcurveto
            -122 118 -77 169 -4 vhcurveto
            -230 -18 -105 -73 -102 vvcurveto
            -142 194 -100 338 339 238 151 222 190 -149 115 -280 vhcurveto
            -207 hlineto
            -100 -52 30 55 45 33 33 64 18 hvcurveto
            -6 45 37 -3 38 hhcurveto
            272 215 120 208 95 -53 87 -80 38 hvcurveto
            258 -19 0 125 -364 -24 rlineto
            28 -66 -94 18 -99 hhcurveto
            -284 -204 -141 -205 hvcurveto
            325 14 rmoveto
            135 61 92 104 108 67 -91 -146 -137 -65 -92 -101 -102 -72 89 150 vhcurveto
            -75 -919 rmoveto
            76 51 53 92 12 vhcurveto
            187 hlineto
            139 60 -49 -83 -101 -108 -70 -169 -160 -92 66 96 hvcurveto
            endchar
          </CharString>
          <CharString index="73">
            -268 -165 289 362 367 159 248 273 -20 callgsubr
          </CharString>
          <CharString index="74">
            1147 rmoveto
            384 376 rlineto
            12 -339 vlineto
            -153 -388 rlineto
            return
          </CharString>
          <CharString index="75">
            1147 rmoveto
            229 376 rlineto
            12 -288 vlineto
            -53 -388 rlineto
            return
          </CharString>
          <CharString index="76">
            -32 -38 -30 hvcurveto
            -74 vlineto
            8 19 32 7 33 hhcurveto
            return
          </CharString>
          <CharString index="77">
            rlineto
            -69 vlineto
            3 9 19 3 16 hhcurveto
            67 47 return
          </CharString>
          <CharString index="78">
            562 1444 -14 callsubr
            return
          </CharString>
          <CharString index="79">
            89 callsubr
            -74 -60 -55 -75 -75 return
          </CharString>
          <CharString index="80">
            rmoveto
            61 49 39 55 54 -49 40 -61 hvcurveto
            return
          </CharString>
          <CharString index="81">
            -191 110 0 -236 388 return
          </CharString>
          <CharString index="82">
            86 vlineto
            -134 18 -19 22 89 vvcurveto
            return
          </CharString>
          <CharString index="83">
            vlineto
            -98 -22 -28 -143 -18 vhcurveto
            -86 return
          </CharString>
          <CharString index="84">
            1147 rmoveto
            237 191 return
          </CharString>
          <CharString index="85">
            -340 vlineto
            -153 -388 rlineto
            return
          </CharString>
          <CharString index="86">
            -339 vlineto
            -154 -388 rlineto
            return
          </CharString>
          <CharString index="87">
            -176 -125 -80 -105 -53 vhcurveto
            return
          </CharString>
          <CharString index="88">
            673 -72 callsubr
            return
          </CharString>
          <CharString index="89">
            rmoveto
            274 -762 203 0 247 681 243 -681 203 0 272 747 52 146 25 20 88 16 rlinecurve
            86 -364 -86 vlineto
            105 -11 14 -29 -41 -130 rrcurveto
            -143 -440 -138 440 -40 129 13 31 100 10 rlinecurve
            86 -556 -86 vlineto
            99 -11 14 -29 -41 -129 rrcurveto
            -145 -440 -137 439 -39 130 12 29 105 11 rlinecurve
            86 -585 -86 vlineto
            86 -19 29 -23 45 -125 rrcurveto
            endchar
          </CharString>
          <CharString index="90">
            rmoveto
            -455 340 -292 450 215 211 52 81 120 vhcurveto
            395 vlineto
            86 17 20 127 15 vhcurveto
            85 -613 -85 vlineto
            139 -15 18 -20 -85 vvcurveto
            -359 vlineto
            -33 -43 -72 -20 -87 hhcurveto
            -267 -163 287 364 367 156 248 276 197 128 -124 -234 56 hvcurveto
            80 hlineto
            -9 374 rlineto
            61 -89 -173 40 -217 hhcurveto
            -454 -343 -276 -477 hvcurveto
            endchar
          </CharString>
          <CharString index="91">
            -417 1154 -272 0 -414 -1137 -64 -176 -27 -29 -118 -17 rlinecurve
            -86 461 86 vlineto
            -148 21 -21 34 55 164 rrcurveto
            58 171 471 0 61 -180 53 -156 -22 -34 -144 -20 rlinecurve
            -86 return
          </CharString>
          <CharString index="92">
            18 -19 26 -2 124 rrcurveto
            -17 915 728 -1169 337 0 10 1194 2 118 18 27 128 19 rlinecurve
            86 -442 -86 vlineto
            136 -17 18 -27 3 -124 17 -863 rcurveline
            return
          </CharString>
          <CharString index="93">
            rmoveto
            -520 -86 hlineto
            123 -20 22 -29 -105 vvcurveto
            -7 -954 -1 -118 -18 -27 -129 -19 rlinecurve
            -86 442 86 vlineto
            -136 return
          </CharString>
          <CharString index="94">
            rmoveto
            -465 350 -284 446 199 190 50 63 88 vhcurveto
            10 375 rlineto
            -49 callgsubr
            return
          </CharString>
          <CharString index="95">
            142 128 66 125 125 -111 66 -132 hvcurveto
            -4 -3 0 -4 hhcurveto
            return
          </CharString>
          <CharString index="96">
            -98 vlineto
            -4 -19 -1 -22 -22 vvcurveto
            -163 117 -149 220 vhcurveto
            return
          </CharString>
          <CharString index="97">
            1527 rmoveto
            181 vlineto
            -627 -195 rlineto
            -84 vlineto
            return
          </CharString>
          <CharString index="98">
            111 -15 18 -18 -69 vvcurveto
            -638 4 callsubr
            return
          </CharString>
          <CharString index="99">
            13 475 rlineto
            -81 hlineto
            -70 -300 -85 -60 -226 -10 return
          </CharString>
          <CharString index="100">
            15 20 -30 hvcurveto
            -1 -83 rlineto
            -41 45 80 -27 95 hhcurveto
            return
          </CharString>
          <CharString index="101">
            rmoveto
            159 107 72 116 116 -95 70 -132 return
          </CharString>
          <CharString index="102">
            651 86 vlineto
            -123 18 -20 20 85 vvcurveto
            return
          </CharString>
          <CharString index="103">
            -218 143 -107 0 213 -300 return
          </CharString>
          <CharString index="104">
            651 86 vlineto
            36 callsubr
            endchar
          </CharString>
          <CharString index="105">
            rmoveto
            193 128 104 169 -7 hvcurveto
            return
          </CharString>
          <CharString index="106">
            512 1028 -47 callsubr
            return
          </CharString>
          <CharString index="107">
            60 -1 45 -24 -44 vvcurveto
            -45 -44 -25 return
          </CharString>
          <CharString index="108">
            -79 -64 -57 -78 -78 64 -58 79 hvcurveto
            return
          </CharString>
          <CharString index="109">
            rmoveto
            621 158 -621 hlineto
            endchar
          </CharString>
          <CharString index="110">
            vlineto
            89 19 22 134 18 vhcurveto
            86 return
          </CharString>
          <CharString index="111">
            vlineto
            -69 -18 -19 -111 -14 vhcurveto
            -86 return
          </CharString>
          <CharString index="112">
            -459 -56 -42 callgsubr
            return
          </CharString>
          <CharString index="113">
            223 0 213 300 rlineto
            return
          </CharString>
          <CharString index="114">
            1718 90 720 rmoveto
            return
          </CharString>
          <CharString index="115">
            -1066 4 callsubr
            return
          </CharString>
          <CharString index="116">
            800 168 308 rmoveto
            return
          </CharString>
          <CharString index="117">
            rmoveto
            363 -1154 263 0 328 1060 315 -1060 270 0 357 1138 55 176 32 29 116 16 rlinecurve
            86 -456 -86 vlineto
            144 -20 13 -32 -44 -161 rrcurveto
            -234 -842 -240 852 -44 155 11 28 141 20 rlinecurve
            86 -653 -86 vlineto
            140 -20 13 -27 -42 -153 rrcurveto
            -236 -855 -241 848 -43 155 15 32 144 20 rlinecurve
            86 -683 -86 vlineto
            111 -16 35 -28 50 -161 rrcurveto
            endchar
          </CharString>
          <CharString index="118">
            rmoveto
            477 123 vlineto
            391 -686 rlineto
            424 81 hlineto
            -71 25 -40 42 -128 221 rrcurveto
            -327 572 173 185 161 167 61 41 131 24 rlinecurve
            86 -507 -86 vlineto
            139 -16 15 -39 -102 -124 -322 -389 rcurveline
            -121 445 hlineto
            85 19 20 124 18 vhcurveto
            86 -651 -96 callgsubr
            -1014 -91 callgsubr
            651 86 vlineto
            -124 18 -19 20 85 vvcurveto
            endchar
          </CharString>
          <CharString index="119">
            1715 566 209 rmoveto
            -2 callgsubr
            return
          </CharString>
          <CharString index="120">
            rmoveto
            182 152 64 97 79 hvcurveto
            151 callsubr
            -324 241 -198 299 vhcurveto
            endchar
          </CharString>
          <CharString index="121">
            -168 -6 rcurveline
            1123 -4 callgsubr
            -1014 vlineto
            -89 -63 callsubr
            vlineto
            return
          </CharString>
          <CharString index="122">
            8 11 -39 hvcurveto
            -37 12 rlineto
            14 -48 -47 11 -53 hhcurveto
            -114 140 callsubr
            return
          </CharString>
          <CharString index="123">
            1350 490 1028 -106 callsubr
            -86 callsubr
            return
          </CharString>
          <CharString index="124">
            1240 1183 hmoveto
            -8 callsubr
            14 callsubr
            return
          </CharString>
          <CharString index="125">
            -455 342 -293 427 465 305 329 424 return
          </CharString>
          <CharString index="126">
            rmoveto
            115 75 67 124 hvcurveto
            -99 hlineto
            -45 -1 -27 -20 -46 hhcurveto
            return
          </CharString>
          <CharString index="127">
            1575 rmoveto
            200 108 131 141 19 -1 19 return
          </CharString>
          <CharString index="128">
            rmoveto
            211 -55 callgsubr
            -201 -211 -153 return
          </CharString>
          <CharString index="129">
            -158 -251 -250 154 -160 201 hvcurveto
            return
          </CharString>
          <CharString index="130">
            rmoveto
            167 hlineto
            907 1444 rlineto
            -168 hlineto
            return
          </CharString>
          <CharString index="131">
            -23 callsubr
            235 -191 109 0 return
          </CharString>
          <CharString index="132">
            -292 162 -58 0 -292 -162 rlineto
            return
          </CharString>
          <CharString index="133">
            1560 744 121 callsubr
            return
          </CharString>
          <CharString index="134">
            -68 callgsubr
            236 388 rlineto
            return
          </CharString>
          <CharString index="135">
            rmoveto
            158 108 72 116 116 return
          </CharString>
          <CharString index="136">
            -88 -70 -63 -87 -87 70 -63 88 hvcurveto
            return
          </CharString>
          <CharString index="137">
            -326 241 -196 304 return
          </CharString>
          <CharString index="138">
            -218 0 -235 -388 rlineto
            return
          </CharString>
          <CharString index="139">
            -177 -126 -81 -107 -52 vhcurveto
            return
          </CharString>
          <CharString index="140">
            361 hmoveto
            138 callsubr
            return
          </CharString>
          <CharString index="141">
            rmoveto
            220 142 callsubr
            return
          </CharString>
          <CharString index="142">
            1147 79 500 rmoveto
            return
          </CharString>
          <CharString index="143">
            -124 17 -19 21 85 vvcurveto
            return
          </CharString>
          <CharString index="144">
            1115 221 callsubr
            return
          </CharString>
          <CharString index="145">
            -15 rlineto
            83 callsubr
            return
          </CharString>
          <CharString index="146">
            rmoveto
            164 129 69 97 52 hvcurveto
            -103 25 105 -58 122 hhcurveto
            89 75 25 30 42 hvcurveto
            81 vlineto
            -4 -12 -16 -2 -18 hhcurveto
            -54 -44 33 84 hvcurveto
            452 vlineto
            246 -172 108 -284 -280 -186 -114 -144 -82 65 -56 87 88 66 62 81 49 -25 42 -38 25 vhcurveto
            12 37 41 7 44 hhcurveto
            146 87 -66 -173 hvcurveto
            -78 vlineto
            -214 -45 rlineto
            -309 -65 -113 -106 -155 vvcurveto
            -148 121 -104 180 vhcurveto
            23 305 rmoveto
            101 60 64 167 38 vhcurveto
            85 18 rlineto
            -292 vlineto
            -50 -30 -59 -32 -73 hhcurveto
            -85 -65 55 98 hvcurveto
            return
          </CharString>
          <CharString index="147">
            rmoveto
            -120 -174 -41 -31 -122 -17 rrcurveto
            -86 473 86 vlineto
            -146 21 -6 34 94 148 rrcurveto
            195 308 209 -324 84 -131 -7 -35 -143 -21 rlinecurve
            -86 704 86 vlineto
            -103 25 -44 32 -80 125 rrcurveto
            -322 500 257 373 116 170 43 30 121 17 rlinecurve
            86 -471 -86 vlineto
            146 -21 5 -33 -92 -148 rrcurveto
            -185 -295 -200 310 -85 134 7 32 145 21 rlinecurve
            86 -703 -86 vlineto
            104 -25 41 -32 80 -125 313 -486 rcurveline
            endchar
          </CharString>
          <CharString index="148">
            rmoveto
            -551 -86 hlineto
            123 -17 24 -31 -3 -105 rrcurveto
            -27 -957 -4 -118 -17 -27 -128 -17 rlinecurve
            -86 436 86 vlineto
            -130 19 -18 25 1 120 rrcurveto
            972 vlineto
            429 -1222 192 0 98 333 307 889 24 -1012 2 -88 -21 -20 -126 -16 rlinecurve
            -86 650 86 vlineto
            -134 17 -18 21 -2 91 rrcurveto
            -26 1014 -2 90 23 22 131 17 rlinecurve
            86 vlineto
            -556 1 -323 -1031 rlineto
            endchar
          </CharString>
          <CharString index="149">
            rmoveto
            283 -236 147 -404 vhcurveto
            -671 -76 callsubr
            -107 callsubr
            -19 callsubr
            325 163 vlineto
            374 266 162 297 hvcurveto
            -374 -17 rmoveto
            -207 -120 -123 -235 -10 vhcurveto
            -74 -3 0 691 74 -3 rlineto
            243 -10 112 -131 -204 vvcurveto
            endchar
          </CharString>
          <CharString index="150">
            295 -151 235 -221 119 vhcurveto
            -6 35 37 -4 38 hhcurveto
            172 118 63 130 1 hvcurveto
            103 -79 99 -109 52 vhcurveto
            -84 hlineto
            22 -28 16 -60 -54 vvcurveto
            -126 -1 -76 -95 -152 -99 -105 24 -132 179 callsubr
            -101 callsubr
          </CharString>
          <CharString index="151">
            rmoveto
            -384 278 -186 331 361 231 224 357 3 vhcurveto
            7 829 rlineto
            -3 18 17 -1 17 hhcurveto
            159 95 68 117 102 -74 95 -105 51 hvcurveto
            -82 callgsubr
            203 callsubr
            endchar
          </CharString>
          <CharString index="152">
            rmoveto
            -7 -333 rlineto
            81 hlineto
            50 183 47 39 172 8 rrcurveto
            161 6 -520 -840 rlineto
            -77 893 vlineto
            6 352 rlineto
            -81 hlineto
            -43 -200 -58 -43 -158 -51 callgsubr
            endchar
          </CharString>
          <CharString index="153">
            rmoveto
            -466 -56 0 -80 66 -18 rlineto
            60 -17 10 -15 -61 vvcurveto
            -472 vlineto
            -215 136 -116 202 175 121 81 106 54 vhcurveto
            -178 vlineto
            194 callsubr
            endchar
          </CharString>
          <CharString index="154">
            200 -95 158 -161 80 hvcurveto
            -12 47 53 -7 52 hhcurveto
            156 104 67 115 1 hvcurveto
            1 100 -76 100 -108 51 rrcurveto
            -82 callgsubr
            204 callsubr
            endchar
          </CharString>
          <CharString index="155">
            -56 16 -9 16 61 vvcurveto
            799 vlineto
            -460 -56 0 -80 65 -18 rlineto
            56 -17 8 -15 -61 vvcurveto
            -549 vlineto
            -50 -28 -63 -38 -80 hhcurveto
            -116 -66 70 134 hvcurveto
            return
          </CharString>
          <CharString index="156">
            1325 79 495 71 callsubr
            -67 callgsubr
            return
          </CharString>
          <CharString index="157">
            187 155 62 100 80 vhcurveto
            86 vlineto
            -50 -56 -91 -32 -94 hhcurveto
            -213 -147 135 234 -29 hvcurveto
            216 callsubr
            return
          </CharString>
          <CharString index="158">
            691 86 vlineto
            -115 17 -31 30 -57 158 rrcurveto
            -871 293 rmoveto
            198 586 200 -586 rlineto
            return
          </CharString>
          <CharString index="159">
            560 vlineto
            273 -10 0 126 -273 -10 rlineto
            244 -65 vlineto
            -386 -286 rlineto
            -74 125 vlineto
            return
          </CharString>
          <CharString index="160">
            692 516 1500 rmoveto
            5 callsubr
            8 callsubr
            -64 callsubr
            return
          </CharString>
          <CharString index="161">
            329 1174 rmoveto
            98 79 70 97 97 -79 70 -98 -98 -79 -70 -97 -97 79 -70 98 hvcurveto
            return
          </CharString>
          <CharString index="162">
            1455 rmoveto
            112 74 78 147 -1 hvcurveto
            -97 hlineto
            -53 -26 -23 -45 -27 return
          </CharString>
          <CharString index="163">
            -218 143 -108 0 214 -300 222 0 213 300 rlineto
            return
          </CharString>
          <CharString index="164">
            313 102 313 -102 0 88 -285 190 -57 0 -284 -190 rlineto
            return
          </CharString>
          <CharString index="165">
            52 47 64 64 -52 47 -64 hvcurveto
            -14 hlineto
            -64 -52 -47 -64 -64 52 -47 64 hvcurveto
            return
          </CharString>
          <CharString index="166">
            -69 vlineto
            3 9 19 3 16 hhcurveto
            67 47 -25 -49 -48 -46 -26 -63 -52 return
          </CharString>
          <CharString index="167">
            1548 rmoveto
            106 hlineto
            -122 300 rlineto
            -352 -9 hlineto
            return
          </CharString>
          <CharString index="168">
            1163 rmoveto
            220 117 149 163 22 -1 22 return
          </CharString>
          <CharString index="169">
            1894 rmoveto
            -109 -80 -48 -50 -40 hvcurveto
            -64 vlineto
            20 return
          </CharString>
          <CharString index="170">
            1527 rmoveto
            627 -98 0 84 -627 195 rlineto
            return
          </CharString>
          <CharString index="171">
            29 -7 -12 40 vhcurveto
            36 -11 rlineto
            -15 48 47 -11 53 hhcurveto
            return
          </CharString>
          <CharString index="172">
            -14 hlineto
            -61 -49 -40 -54 -55 49 -39 61 hvcurveto
            359 hmoveto
            return
          </CharString>
          <CharString index="173">
            -53 15 21 -32 vhcurveto
            -77 vlineto
            -37 41 77 -28 93 hhcurveto
            endchar
          </CharString>
          <CharString index="174">
            rmoveto
            110 84 83 217 -5 hvcurveto
            -97 hlineto
            -90 -3 -22 return
          </CharString>
          <CharString index="175">
            rmoveto
            23 callgsubr
            377 hmoveto
            23 callgsubr
            return
          </CharString>
          <CharString index="176">
            1535 rmoveto
            -295 -12 hlineto
            330 -376 rlineto
            return
          </CharString>
          <CharString index="177">
            684 -72 callsubr
            37 callsubr
            endchar
          </CharString>
          <CharString index="178">
            rmoveto
            -325 182 -192 230 155 126 return
          </CharString>
          <CharString index="179">
            1191 rmoveto
            88 70 63 87 87 -70 63 -88 return
          </CharString>
          <CharString index="180">
            47 16 51 hhcurveto
            66 40 -27 -44 -45 -38 -40 return
          </CharString>
          <CharString index="181">
            rmoveto
            643 -83 0 71 -643 166 rlineto
            return
          </CharString>
          <CharString index="182">
            rmoveto
            154 vlineto
            -643 -166 rlineto
            -71 vlineto
            return
          </CharString>
          <CharString index="183">
            rmoveto
            64 58 callsubr
            378 hmoveto
            64 return
          </CharString>
          <CharString index="184">
            1569 rmoveto
            89 callsubr
            return
          </CharString>
          <CharString index="185">
            -203 0 -219 -349 rlineto
            endchar
          </CharString>
          <CharString index="186">
            -202 0 -219 -349 rlineto
            endchar
          </CharString>
          <CharString index="187">
            22 -61 hhcurveto
            -110 -84 -83 -217 return
          </CharString>
          <CharString index="188">
            -79 -64 -57 -78 -78 63 -58 80 hvcurveto
            return
          </CharString>
          <CharString index="189">
            -86 vlineto
            134 -18 19 -22 -89 vvcurveto
            return
          </CharString>
          <CharString index="190">
            -86 vlineto
            111 -14 18 -19 -69 vvcurveto
            return
          </CharString>
          <CharString index="191">
            hlineto
            98 22 27 143 18 vhcurveto
            86 return
          </CharString>
          <CharString index="192">
            -1169 -97 callsubr
            return
          </CharString>
          <CharString index="193">
            1868 75 callsubr
            return
          </CharString>
          <CharString index="194">
            642 -22 -97 callsubr
            return
          </CharString>
          <CharString index="195">
            79 64 57 78 79 -64 57 -79 return
          </CharString>
          <CharString index="196">
            75 60 55 75 75 -60 55 -75 return
          </CharString>
          <CharString index="197">
            57 79 78 -63 57 -79 hvcurveto
            endchar
          </CharString>
          <CharString index="198">
            rmoveto
            628 144 -628 hlineto
            return
          </CharString>
          <CharString index="199">
            rmoveto
            328 263 164 290 215 -126 147 -273 87 hvcurveto
            -124 40 rlineto
            -161 52 -82 66 116 vvcurveto
            120 88 86 169 180 130 -117 -214 45 vhcurveto
            81 hlineto
            -9 346 rlineto
            59 -84 -158 43 -191 hhcurveto
            -361 -227 -173 -264 -211 139 -145 258 -81 hvcurveto
            125 -40 rlineto
            169 -54 75 -76 -121 vvcurveto
            -128 -102 -90 -162 -197 -168 123 237 -52 vhcurveto
            -81 hlineto
            12 -365 rlineto
            -64 100 188 -48 208 hhcurveto
            return
          </CharString>
          <CharString index="200">
            rmoveto
            -239 319 189 239 81 108 36 27 95 16 rlinecurve
            86 -401 -86 vlineto
            113 -15 9 -23 -69 -99 rrcurveto
            -120 -164 -123 165 -70 96 10 27 115 13 rlinecurve
            86 -582 -86 vlineto
            67 -15 31 -22 71 -93 rrcurveto
            238 -319 -181 -228 -91 -116 -35 -30 -106 -19 rlinecurve
            -86 413 86 vlineto
            -105 14 -16 25 72 103 rrcurveto
            116 161 123 -163 72 -101 -13 -25 -112 -14 rlinecurve
            -86 585 86 vlineto
            -69 16 -34 24 -70 93 rrcurveto
            endchar
          </CharString>
          <CharString index="201">
            rmoveto
            -171 126 -92 190 -53 vhcurveto
            93 -25 rlineto
            118 -34 47 -40 -72 vvcurveto
            -77 -69 -54 -119 -163 -112 102 145 -35 vhcurveto
            -81 hlineto
            8 -272 rlineto
            -50 86 147 -37 160 hhcurveto
            282 194 125 204 171 -105 97 -206 56 hvcurveto
            -92 25 rlineto
            -112 32 -59 37 73 vvcurveto
            75 66 48 113 135 94 -80 -136 36 vhcurveto
            81 hlineto
            -6 261 rlineto
            35 -66 -123 32 -158 hhcurveto
            -294 -176 -124 -201 hvcurveto
            return
          </CharString>
          <CharString index="202">
            325 -181 192 -230 -154 -126 -75 -112 -52 vhcurveto
            4 651 -460 -56 0 -79 65 -19 rlineto
            56 -16 8 -16 -60 vvcurveto
            -1254 170 vlineto
            113 129 rlineto
            -83 52 116 -68 142 hhcurveto
            264 213 203 338 hvcurveto
            -339 -27 rmoveto
            -246 -97 -137 -141 -78 -60 39 45 -24 vhcurveto
            584 vlineto
            57 29 61 36 78 hhcurveto
            138 94 -136 -242 hvcurveto
            return
          </CharString>
          <CharString index="203">
            rmoveto
            -102 -90 -40 -47 -50 hvcurveto
            -82 vlineto
            5 11 19 5 23 hhcurveto
            66 30 -38 -103 hvcurveto
            -75 -6 -197 -73 vvcurveto
            -250 148 -157 277 285 209 220 378 288 -99 172 -153 -117 -70 -110 -142 32 vhcurveto
            153 -28 102 -146 -178 vvcurveto
            -185 -96 -100 -133 -136 -70 95 175 vhcurveto
            69 7 197 69 vvcurveto
            186 -82 92 -158 vhcurveto
            endchar
          </CharString>
          <CharString index="204">
            1681 840 -27 rmoveto
            413 338 338 412 412 -338 338 -413 -412 -338 -338 -412 -412 338 -338 412 hvcurveto
            72 vmoveto
            -366 -302 306 372 372 301 306 367 367 302 -306 -372 -372 -302 -306 -367 hvcurveto
            return
          </CharString>
          <CharString index="205">
            1568 179 1235 rmoveto
            -690 vlineto
            -386 278 -187 331 371 221 228 356 4 vhcurveto
            7 639 2 118 18 27 126 18 rlinecurve
            86 -439 -86 vlineto
            137 -19 18 -27 2 155 callsubr
            return
          </CharString>
          <CharString index="206">
            rmoveto
            222 -182 125 -271 18 vhcurveto
            209 18 177 103 186 vvcurveto
            223 -215 125 -375 vhcurveto
            -691 -76 callsubr
            -107 callsubr
            196 callsubr
            endchar
          </CharString>
          <CharString index="207">
            rmoveto
            197 131 89 143 -7 hvcurveto
            -98 hlineto
            -55 -5 -92 -37 -126 hhcurveto
            -126 -93 37 55 -5 hvcurveto
            -98 hlineto
            -143 -7 131 -89 198 hhcurveto
            557 -1239 -95 callsubr
          </CharString>
          <CharString index="208">
            rmoveto
            12 -709 rlineto
            -228 4 114 -99 183 hhcurveto
            132 116 57 78 58 hvcurveto
            82 vlineto
            -22 -33 -47 -13 -55 hhcurveto
            -101 -67 55 137 3 hvcurveto
            30 17 561 3 71 vhcurveto
            endchar
          </CharString>
          <CharString index="209">
            rmoveto
            113 73 78 146 -1 hvcurveto
            -96 hlineto
            -53 -1 -26 -22 -45 hhcurveto
            -27 -29 7 14 -38 hvcurveto
            7 callgsubr
            29 -8 -13 39 vhcurveto
            35 -13 rlineto
            -17 47 46 -13 51 hhcurveto
            return
          </CharString>
          <CharString index="210">
            -107 callgsubr
            -74 vlineto
            23 30 52 18 57 -38 callgsubr
            103 hlineto
            194 -44 callgsubr
            return
          </CharString>
          <CharString index="211">
            rmoveto
            197 132 89 143 -7 hvcurveto
            -99 hlineto
            -55 -5 -92 -37 -126 hhcurveto
            -126 -92 37 55 -5 hvcurveto
            -99 hlineto
            -143 -7 132 -89 197 hhcurveto
            endchar
          </CharString>
          <CharString index="212">
            rmoveto
            184 40 167 137 204 vvcurveto
            137 -78 95 -119 -122 -71 -101 -125 vhcurveto
            98 -5 66 -57 -85 vvcurveto
            -82 -66 -57 -86 -23 vhcurveto
            endchar
          </CharString>
          <CharString index="213">
            -217 143 -108 0 213 -300 6 callsubr
            return
          </CharString>
          <CharString index="214">
            -97 hlineto
            -65 -4 -90 -43 -123 hhcurveto
            -123 -90 43 65 -4 hvcurveto
            -97 hlineto
            -169 -7 128 -104 193 hhcurveto
            endchar
          </CharString>
          <CharString index="215">
            484 hmoveto
            88 -53 callgsubr
            return
          </CharString>
          <CharString index="216">
            1191 rmoveto
            87 71 63 87 87 -71 63 -87 -88 -71 -63 -87 -87 71 -63 88 hvcurveto
            484 hmoveto
            88 return
          </CharString>
          <CharString index="217">
            1184 rmoveto
            115 88 90 232 -5 hvcurveto
            -99 hlineto
            -98 -2 -24 -36 -46 hhcurveto
            125 callsubr
            return
          </CharString>
          <CharString index="218">
            240 145 -278 -369 -358 -108 -261 -261 -240 -145 279 369 vhcurveto
            return
          </CharString>
          <CharString index="219">
            rmoveto
            -7 -333 rlineto
            81 hlineto
            51 183 47 39 171 8 rrcurveto
            162 6 -521 -840 rlineto
            -77 return
          </CharString>
          <CharString index="220">
            432 642 21 callsubr
            -159 -251 -249 154 -160 201 hvcurveto
            return
          </CharString>
          <CharString index="221">
            66 14 16 95 14 vhcurveto
            86 -568 -86 vlineto
            -9 callsubr
            -79 callsubr
            endchar
          </CharString>
          <CharString index="222">
            -86 vlineto
            92 -13 13 -16 -67 vvcurveto
            -732 -322 732 vlineto
            67 13 16 92 13 vhcurveto
            86 return
          </CharString>
          <CharString index="223">
            -25 -49 -48 -46 -26 -63 -52 -52 15 20 -30 hvcurveto
            -83 vlineto
            -41 44 80 -27 96 hhcurveto
            endchar
          </CharString>
          <CharString index="224">
            1184 rmoveto
            115 87 90 232 -5 hvcurveto
            -98 hlineto
            -98 -2 -24 -36 -46 hhcurveto
            return
          </CharString>
          <CharString index="225">
            65 51 46 64 65 -51 47 -65 hvcurveto
            -13 hlineto
            -64 -52 -47 -65 -64 52 -46 64 hvcurveto
            return
          </CharString>
          <CharString index="226">
            64 52 46 64 65 -52 47 -64 hvcurveto
            -14 hlineto
            -64 -52 -47 -65 -64 52 -46 64 hvcurveto
            return
          </CharString>
          <CharString index="227">
            -87 -90 -232 5 hvcurveto
            98 hlineto
            98 3 23 36 46 hhcurveto
            80 callgsubr
            return
          </CharString>
          <CharString index="228">
            161 callsubr
            -391 -21 -56 callgsubr
            57 callgsubr
            return
          </CharString>
          <CharString index="229">
            hlineto
            261 388 rmoveto
            -270 -12 hlineto
            213 -376 rlineto
            112 hlineto
            return
          </CharString>
          <CharString index="230">
            1562 rmoveto
            80 64 58 78 78 -64 57 -80 1 callsubr
            return
          </CharString>
          <CharString index="231">
            352 rlineto
            -82 hlineto
            -43 -200 -57 -43 -159 -51 callgsubr
            return
          </CharString>
          <CharString index="232">
            -30 -26 14 26 -37 hvcurveto
            -32 23 rlineto
            41 -58 -50 24 -64 hhcurveto
            -115 return
          </CharString>
          <CharString index="233">
            rmoveto
            -80 -63 -57 -78 -79 63 -57 80 78 64 90 callsubr
          </CharString>
          <CharString index="234">
            -59 callgsubr
            35 -74 rlineto
            396 -101 callgsubr
          </CharString>
          <CharString index="235">
            301 rmoveto
            -266 -9 hlineto
            192 -292 rlineto
            111 hlineto
            return
          </CharString>
          <CharString index="236">
            7 12 -39 hvcurveto
            -37 11 rlineto
            14 -48 -47 11 -53 hhcurveto
            -114 return
          </CharString>
          <CharString index="237">
            1867 rmoveto
            155 vlineto
            -643 -166 rlineto
            -71 vlineto
            return
          </CharString>
          <CharString index="238">
            5 hlineto
            100 93 71 141 140 94 -72 -99 vhcurveto
            -5 return
          </CharString>
          <CharString index="239">
            -88 -90 -232 6 hvcurveto
            98 hlineto
            98 2 24 36 46 hhcurveto
            return
          </CharString>
          <CharString index="240">
            rmoveto
            229 377 rlineto
            11 -288 vlineto
            -53 -388 rlineto
            return
          </CharString>
          <CharString index="241">
            1965 rmoveto
            -82 -72 -30 -37 -42 hvcurveto
            -56 vlineto
            13 return
          </CharString>
          <CharString index="242">
            1848 rmoveto
            -293 -9 hlineto
            309 -292 rlineto
            return
          </CharString>
          <CharString index="243">
            1692 rmoveto
            -84 -73 -34 -43 -43 hvcurveto
            -67 vlineto
            16 return
          </CharString>
          <CharString index="244">
            -57 callsubr
            -339 vlineto
            -132 -300 rlineto
            return
          </CharString>
          <CharString index="245">
            74 60 55 75 75 -60 55 -74 -51 callsubr
            return
          </CharString>
          <CharString index="246">
            30 26 -14 -26 37 hvcurveto
            32 -23 rlineto
            -41 58 50 -24 return
          </CharString>
          <CharString index="247">
            -76 -67 -124 1 hvcurveto
            99 hlineto
            45 27 20 46 28 return
          </CharString>
          <CharString index="248">
            rmoveto
            -80 -48 99 237 235 43 90 78 81 48 return
          </CharString>
          <CharString index="249">
            172 218 -172 102 0 -219 349 return
          </CharString>
          <CharString index="250">
            19 20 vvcurveto
            140 -109 131 -200 vhcurveto
            return
          </CharString>
          <CharString index="251">
            rmoveto
            203 420 -244 0 -46 -420 rlineto
            return
          </CharString>
          <CharString index="252">
            rmoveto
            185 148 94 182 35 hvcurveto
            -172 79 183 -104 193 hhcurveto
            183 152 64 96 79 hvcurveto
            85 vlineto
            -48 -54 -91 -31 -92 hhcurveto
            -210 -145 137 236 -27 hvcurveto
            634 hlineto
            3 21 2 31 31 vvcurveto
            265 -168 171 -278 -129 -117 -48 -78 -71 vhcurveto
            82 -57 -117 44 -164 hhcurveto
            -252 -177 -110 -137 -79 62 -59 85 91 69 63 80 45 -23 39 -34 25 hvcurveto
            10 33 39 6 41 hhcurveto
            148 91 -78 -178 hvcurveto
            -61 vlineto
            -210 -37 rlineto
            -300 -52 -128 -111 -165 vvcurveto
            -165 131 -94 178 vhcurveto
            805 945 rmoveto
            109 52 -101 -170 -14 0 -11 -1 -10 hvcurveto
            -352 -2 rlineto
            202 4 75 106 113 hhcurveto
            -655 -791 rmoveto
            -84 -55 55 97 107 66 68 172 33 hvcurveto
            80 15 rlineto
            -145 vlineto
            -163 -82 -67 -97 vhcurveto
            endchar
          </CharString>
          <CharString index="253">
            rmoveto
            -1075 hlineto
            -552 -1127 -91 -187 -44 -29 -110 -15 rlinecurve
            -86 466 86 vlineto
            -134 20 -22 43 77 168 rrcurveto
            121 258 440 0 5 -366 rlineto
            -87 -19 -19 -124 -17 vhcurveto
            -86 1111 vlineto
            11 438 rlineto
            -81 hlineto
            -56 -274 -63 -44 -260 -13 rrcurveto
            -188 -8 -6 590 169 -2 92 -3 27 -38 31 -162 rlinecurve
            76 hlineto
            -5 507 rlineto
            -77 hlineto
            -29 -162 -25 -38 -92 -2 rrcurveto
            -168 -2 -6 558 168 -7 243 -12 65 -49 57 -227 rlinecurve
            81 hlineto
            -1018 295 rmoveto
            73 hlineto
            7 -661 rlineto
            -388 hlineto
            endchar
          </CharString>
          <CharString index="254">
            rmoveto
            239 -1 -195 154 -410 hhcurveto
            -683 -86 hlineto
            134 -18 19 -21 -90 vvcurveto
            -1014 vlineto
            -89 -63 callsubr
            -5 callsubr
            420 173 vlineto
            310 -629 rlineto
            402 81 hlineto
            -58 18 -42 37 -103 201 rrcurveto
            -184 368 175 51 109 124 -1 171 rlinecurve
            -357 -22 rmoveto
            -189 -127 -102 -196 -7 vhcurveto
            -101 -4 0 618 87 -2 rlineto
            227 -9 110 -119 -186 vvcurveto
            return
          </CharString>
          <CharString index="255">
            1498 566 209 rmoveto
            477 123 vlineto
            391 -686 rlineto
            424 81 hlineto
            -71 25 -40 42 -128 221 rrcurveto
            -327 572 173 185 161 167 61 41 131 24 rlinecurve
            86 -507 -86 vlineto
            139 -16 15 -39 -102 -124 -322 -389 rcurveline
            -121 445 hlineto
            85 19 20 124 18 vhcurveto
            86 -651 -96 callgsubr
            -1014 -91 callgsubr
            651 86 vlineto
            -124 18 -19 20 85 vvcurveto
            return
          </CharString>
          <CharString index="256">
            -157 -125 -79 -112 -50 vhcurveto
            183 vlineto
            -455 -56 0 -80 65 -18 rlineto
            55 -16 9 -16 -61 vvcurveto
            -1054 vlineto
            -84 callgsubr
            605 86 vlineto
            -126 15 -20 19 79 vvcurveto
            351 vlineto
            -65 49 107 -47 114 hhcurveto
            259 211 204 337 hvcurveto
            -339 -27 rmoveto
            -243 -96 -140 -142 -77 -62 37 46 -24 vhcurveto
            584 vlineto
            58 29 61 36 78 hhcurveto
            140 93 -140 -238 hvcurveto
            endchar
          </CharString>
          <CharString index="257">
            400 81 hlineto
            -64 20 -44 38 -96 178 rrcurveto
            -215 388 37 34 160 138 58 30 119 21 rlinecurve
            86 -478 -86 vlineto
            133 -20 8 -39 -101 -99 rrcurveto
            -187 -190 -101 -1 0 922 -54 callsubr
            -79 callsubr
            298 105 vlineto
            return
          </CharString>
          <CharString index="258">
            86 vlineto
            -49 -55 -96 -31 -93 hhcurveto
            -208 -160 151 262 221 119 137 169 43 38 -8 -14 32 hvcurveto
            -57 -19 -39 -56 -66 vvcurveto
            -83 66 -65 85 85 69 64 95 150 -135 122 -254 -311 -251 -207 -329 return
          </CharString>
          <CharString index="259">
            1553 rmoveto
            111 84 83 217 -5 hvcurveto
            -98 hlineto
            -90 -2 -22 -32 -43 hhcurveto
            -100 callgsubr
            -56 -47 80 callsubr
            5 hvcurveto
            97 hlineto
            90 3 22 33 43 hhcurveto
            29 24 -13 -24 35 hvcurveto
            30 -20 rlineto
            -38 55 47 -22 61 hhcurveto
            return
          </CharString>
          <CharString index="260">
            rmoveto
            -456 -56 0 -80 64 -18 rlineto
            56 -16 9 -16 -61 vvcurveto
            -594 27 callgsubr
            495 vlineto
            45 46 111 31 106 hhcurveto
            57 58 -9 -11 30 hvcurveto
            14 25 10 45 44 vvcurveto
            92 -43 76 -96 -106 -91 -85 -194 -101 vhcurveto
            return
          </CharString>
          <CharString index="261">
            76 113 52 vhcurveto
            -180 vlineto
            -94 callsubr
            -57 16 -9 16 61 vvcurveto
            1270 vlineto
            -459 -55 -42 callgsubr
            -331 vlineto
            66 -50 -106 47 -115 hhcurveto
            -259 -210 -203 -338 hvcurveto
            return
          </CharString>
          <CharString index="262">
            -121 7 -610 rcurveline
            -285 3 -143 -146 -223 hhcurveto
            -212 -153 137 275 hvcurveto
            667 vlineto
            89 20 22 134 18 vhcurveto
            86 -651 -86 vlineto
            122 -18 20 -20 -85 vvcurveto
            return
          </CharString>
          <CharString index="263">
            -315 234 -209 329 hvcurveto
            11 113 rmoveto
            -136 -91 162 264 254 76 152 139 136 91 -162 -264 -255 -76 -151 -139 hvcurveto
            return
          </CharString>
          <CharString index="264">
            rmoveto
            112 74 78 146 -1 hvcurveto
            -97 hlineto
            -53 -26 -22 -45 -27 -30 7 14 -38 vhcurveto
            7 callgsubr
            30 -8 -13 38 vhcurveto
            36 -13 rlineto
            -17 46 47 -13 51 hhcurveto
            endchar
          </CharString>
          <CharString index="265">
            28 50 12 47 hhcurveto
            71 37 -24 -34 -34 -36 -25 -81 -16 hvcurveto
            73 -44 rlineto
            136 25 77 44 79 vvcurveto
            79 -91 48 -115 vhcurveto
            -589 -470 -93 callgsubr
            return
          </CharString>
          <CharString index="266">
            1345 rmoveto
            -128 132 -85 175 175 132 85 128 128 -131 86 -176 -176 -131 -87 -127 vhcurveto
            207 hmoveto
            75 return
          </CharString>
          <CharString index="267">
            56 -117 vhcurveto
            -554 -574 rmoveto
            57 callsubr
            return
          </CharString>
          <CharString index="268">
            rmoveto
            451 -348 249 -509 vhcurveto
            -645 -76 callsubr
            -107 callsubr
            661 vlineto
            461 380 285 459 hvcurveto
            return
          </CharString>
          <CharString index="269">
            27 63 38 83 hhcurveto
            110 67 -31 callgsubr
            -95 -13 vhcurveto
            -86 548 86 vlineto
            -95 13 -14 16 66 vvcurveto
            197 callsubr
            endchar
          </CharString>
          <CharString index="270">
            59 -1 46 -24 -44 vvcurveto
            -45 -44 -25 -67 84 callgsubr
          </CharString>
          <CharString index="271">
            -86 hlineto
            110 -14 19 -19 -69 vvcurveto
            -638 vlineto
            -69 -19 -19 -110 -14 vhcurveto
            -86 604 86 vlineto
            -126 15 -19 19 79 vvcurveto
            return
          </CharString>
          <CharString index="272">
            -48 22 -61 hhcurveto
            -110 -83 -83 -217 4 hvcurveto
            98 hlineto
            90 2 22 33 44 hhcurveto
            28 24 -13 -24 35 hvcurveto
            30 return
          </CharString>
          <CharString index="273">
            rmoveto
            159 108 72 116 116 -96 70 -131 -89 -70 -31 callsubr
            0 callsubr
            -66 return
          </CharString>
          <CharString index="274">
            1548 rmoveto
            220 142 217 -142 107 0 -213 300 -222 0 -213 -300 rlineto
            return
          </CharString>
          <CharString index="275">
            195 157 118 146 -118 484 -186 hlineto
            -381 -512 rlineto
            -118 372 vlineto
            return
          </CharString>
          <CharString index="276">
            -95 70 -132 -89 -70 -32 -38 -30 hvcurveto
            -74 vlineto
            8 19 33 7 33 hhcurveto
            59 -1 45 -24 -44 vvcurveto
            -45 return
          </CharString>
          <CharString index="277">
            14 48 hhcurveto
            72 38 -28 -40 -41 -37 -29 -82 -19 hvcurveto
            75 -51 rlineto
            138 29 78 52 93 vvcurveto
            92 return
          </CharString>
          <CharString index="278">
            -36 13 rlineto
            17 -46 -47 13 -51 hhcurveto
            -111 -75 -79 -146 1 hvcurveto
            97 hlineto
            53 26 23 45 27 return
          </CharString>
          <CharString index="279">
            vvcurveto
            -122 97 -79 127 101 86 43 64 38 vhcurveto
            -1 83 rlineto
            -15 -15 -27 -11 -32 hhcurveto
            -70 -61 return
          </CharString>
          <CharString index="280">
            2 362 rlineto
            268 100 -268 hlineto
            1 188 -330 -41 rlineto
            -147 -130 vlineto
            endchar
          </CharString>
          <CharString index="281">
            rmoveto
            200 144 122 175 176 -138 115 -200 -200 -144 -122 return
          </CharString>
          <CharString index="282">
            rmoveto
            108 81 81 209 -5 hvcurveto
            -91 hlineto
            -89 -3 -22 -32 -43 hhcurveto
            -28 6 callgsubr
            return
          </CharString>
          <CharString index="283">
            450 rmoveto
            276 -226 157 -372 vhcurveto
            -199 332 84 callsubr
            return
          </CharString>
          <CharString index="284">
            5 hvcurveto
            98 hlineto
            90 2 22 33 43 hhcurveto
            29 24 -13 -24 35 hvcurveto
            30 -20 rlineto
            -38 56 return
          </CharString>
          <CharString index="285">
            -220 -117 -150 -162 -23 1 -21 4 -19 hvcurveto
            98 131 callsubr
            return
          </CharString>
          <CharString index="286">
            hhcurveto
            -465 -304 -329 -423 hvcurveto
            -104 callsubr
            -103 callsubr
            return
          </CharString>
          <CharString index="287">
            rmoveto
            220 172 219 -172 101 0 -219 349 79 callsubr
          </CharString>
          <CharString index="288">
            1792 rmoveto
            115 75 67 124 hvcurveto
            -99 hlineto
            -44 -1 -27 -20 -46 hhcurveto
            return
          </CharString>
          <CharString index="289">
            -234 192 -110 0 236 -388 217 0 236 388 rlineto
            return
          </CharString>
          <CharString index="290">
            vhcurveto
            38 8 rlineto
            -145 vlineto
            -22 -14 -30 -14 -38 hhcurveto
            -44 -33 25 47 hvcurveto
            endchar
          </CharString>
          <CharString index="291">
            rmoveto
            -79 -63 -57 -78 -79 63 -57 79 79 64 57 79 78 -63 57 -80 hvcurveto
            endchar
          </CharString>
          <CharString index="292">
            -217 78 -181 128 -129 vhcurveto
            -129 -139 76 -72 132 142 rlineto
            -98 132 168 -54 184 hhcurveto
            465 305 329 424 217 -78 180 -129 130 hvcurveto
            129 138 -76 72 -132 -142 rlineto
            98 -132 -168 54 -184 179 callsubr
            136 106 -89 -145 65 vhcurveto
            -638 -687 rlineto
            -25 89 -13 103 111 vvcurveto
            754 -29 rmoveto
            -358 -108 -261 -261 -136 -105 90 144 -66 vhcurveto
            638 687 rlineto
            25 -89 13 -103 -110 vvcurveto
            endchar
          </CharString>
          <CharString index="293">
            rmoveto
            328 240 218 315 145 -50 123 -86 90 hvcurveto
            95 97 -71 70 -100 -102 rlineto
            64 -93 -119 35 -134 hhcurveto
            -328 -241 -218 -314 -147 52 -125 88 -90 hvcurveto
            -90 -91 71 -71 95 98 rlineto
            -62 93 117 -35 133 hhcurveto
            -221 538 rmoveto
            255 79 152 141 83 66 -58 -103 40 vhcurveto
            -396 -406 rlineto
            -9 48 -4 54 58 vvcurveto
            232 -428 rmoveto
            -82 -66 57 100 -40 hvcurveto
            396 405 rlineto
            8 -47 4 -51 -57 vvcurveto
            -255 -79 -152 -141 vhcurveto
            endchar
          </CharString>
          <CharString index="294">
            rmoveto
            -291 161 -162 208 179 118 121 166 55 vhcurveto
            39 -162 111 -126 198 1 rrcurveto
            247 173 227 330 300 -122 200 -162 -127 -72 -124 -141 53 hvcurveto
            162 -33 114 -154 -180 vvcurveto
            -146 -75 -91 -109 -130 -76 122 267 vhcurveto
            200 -283 -204 vlineto
            -284 -66 -99 -102 -101 -55 103 200 216 67 181 121 107 vhcurveto
            -54 59 rlineto
            -292 -81 -180 -234 -288 vvcurveto
            endchar
          </CharString>
          <CharString index="295">
            rmoveto
            166 104 97 185 91 hvcurveto
            -196 46 77 -81 134 hhcurveto
            90 83 44 68 52 hvcurveto
            81 vlineto
            -12 -15 -25 -9 -26 hhcurveto
            -68 -55 56 265 -69 hvcurveto
            -4 16 232 521 rlineto
            -305 hlineto
            -18 -87 -24 -96 -26 -96 rrcurveto
            194 -68 -107 107 -206 hhcurveto
            -267 -179 -222 -313 -342 175 -180 212 hvcurveto
            -46 548 rmoveto
            238 63 145 104 100 46 -97 -231 39 vhcurveto
            29 -183 rlineto
            -172 -63 -62 -74 -87 hhcurveto
            -107 -62 147 227 hvcurveto
            endchar
          </CharString>
          <CharString index="296">
            rmoveto
            246 175 93 135 88 hvcurveto
            -1 85 rlineto
            -61 -73 -128 -45 -151 hhcurveto
            -153 -1 -91 48 86 vvcurveto
            89 90 51 182 vhcurveto
            82 hlineto
            -41 196 rlineto
            -45 hlineto
            -201 -82 46 87 81 78 54 154 68 59 -8 -16 46 hvcurveto
            -33 -22 -22 -38 -45 vvcurveto
            -67 49 -59 85 74 58 59 75 126 -133 109 -304 -320 -165 -125 -170 -160 143 -91 219 -5 vhcurveto
            -241 -8 -145 -84 -147 vvcurveto
            -168 174 -100 259 vhcurveto
            endchar
          </CharString>
          <CharString index="297">
            rmoveto
            -95 79 -70 104 161 111 114 257 136 vhcurveto
            450 849 65 124 27 24 121 18 rlinecurve
            86 -457 -86 vlineto
            162 -20 8 -19 -62 -128 rrcurveto
            -263 -545 -289 557 -61 116 6 21 159 18 rlinecurve
            86 -695 -86 vlineto
            117 -17 26 -25 62 -112 rrcurveto
            493 -890 -47 -93 -45 -64 -49 -39 rlinecurve
            1 4 0 5 4 vvcurveto
            91 -70 74 -90 -90 -70 -71 -88 vhcurveto
            endchar
          </CharString>
          <CharString index="298">
            rmoveto
            102 85 44 59 38 hvcurveto
            84 vlineto
            -15 -15 -25 -10 -32 hhcurveto
            -71 -57 81 119 35 8 40 14 32 hvcurveto
            292 30 206 209 291 vvcurveto
            -99 callsubr
            -304 217 -205 309 -14 vhcurveto
            -91 -75 -63 -93 -98 vvcurveto
            -119 99 -81 120 vhcurveto
            -17 578 rmoveto
            -136 -91 162 264 254 76 152 139 136 91 -162 -264 -255 -76 -151 -139 hvcurveto
            endchar
          </CharString>
          <CharString index="299">
            340 hlineto
            76 -7 682 -1 vvcurveto
            66 26 62 41 84 hhcurveto
            120 63 -70 -207 -310 -6 -372 -10 -365 hvcurveto
            340 hlineto
            -2 1100 rlineto
            289 -144 107 -207 -179 -120 -91 -115 -44 vhcurveto
            125 -15 -77 75 -130 hhcurveto
            -95 -88 -41 -46 -48 hvcurveto
            -82 vlineto
            5 11 19 4 21 hhcurveto
            77 34 -42 -117 -2 hvcurveto
            -34 -19 -596 -4 -81 vhcurveto
            endchar
          </CharString>
          <CharString index="300">
            178 151 85 166 107 -78 86 -132 22 hvcurveto
            112 20 74 65 90 vvcurveto
            105 -104 72 -154 -164 -110 -88 -126 -42 vhcurveto
            52 -29 rlineto
            70 33 66 36 79 hhcurveto
            82 46 -41 -61 -72 -73 -45 72 callgsubr
            -61 -99 -92 -68 -53 -89 -37 -32 9 16 -25 hvcurveto
            30 13 21 29 35 vvcurveto
            49 -39 37 -50 -53 -38 -39 -51 -99 110 -80 166 vhcurveto
            return
          </CharString>
          <CharString index="301">
            463 51 0 80 -68 18 rlineto
            -60 17 -9 15 61 vvcurveto
            716 vlineto
            -2 15 17 -1 18 hhcurveto
            122 89 62 112 1 hvcurveto
            1 99 -78 99 -111 50 rrcurveto
            -84 hlineto
            20 -27 18 -54 -58 vvcurveto
            -136 -94 -78 -268 -27 vhcurveto
            -132 -13 0 -79 66 -18 rlineto
            60 -17 10 -15 -61 vvcurveto
            -549 vlineto
            -50 -30 -62 -38 -80 hhcurveto
            -116 -66 70 134 hvcurveto
            return
          </CharString>
          <CharString index="302">
            1314 -744 rmoveto
            -81 callsubr
            -61 -277 -81 -42 -283 -11 rrcurveto
            -268 -9 763 1264 rlineto
            81 -1134 vlineto
            -13 -395 rlineto
            81 hlineto
            53 225 62 52 271 10 rrcurveto
            281 9 -763 -1264 rlineto
            -81 vlineto
            -545 723 -56 callgsubr
            57 callgsubr
            endchar
          </CharString>
          <CharString index="303">
            691 vlineto
            355 302 144 280 hvcurveto
            -426 642 rmoveto
            -168 -101 -90 -181 -2 vhcurveto
            -132 539 hlineto
            96 -3 rlineto
            220 -7 98 -105 -164 vvcurveto
            51 -659 rmoveto
            -197 -139 -101 -230 -7 vhcurveto
            -96 -3 0 608 132 -1 rlineto
            215 -1 118 -114 -184 vvcurveto
            return
          </CharString>
          <CharString index="304">
            545 vlineto
            22 -1 21 -4 19 vhcurveto
            48 30 62 34 82 hhcurveto
            112 68 -31 callgsubr
            -94 -13 vhcurveto
            -86 567 -98 callgsubr
            516 vlineto
            216 -136 116 -206 -175 -128 -86 -104 -50 vhcurveto
            123 -39 -121 67 -161 hhcurveto
            -174 -124 -85 -103 -49 hvcurveto
            return
          </CharString>
          <CharString index="305">
            rmoveto
            699 vlineto
            260 -9 0 126 -260 -10 rlineto
            199 vlineto
            146 52 57 83 vhcurveto
            1 hlineto
            -20 -20 -11 -28 -32 vvcurveto
            -71 52 -50 69 66 54 51 70 106 -96 83 -184 -229 -164 -138 -273 vhcurveto
            -94 vlineto
            -132 -49 rlineto
            -74 129 -701 27 callgsubr
            endchar
          </CharString>
          <CharString index="306">
            rmoveto
            316 241 214 318 319 -221 207 -330 -320 -241 -214 -318 -319 221 -207 334 hvcurveto
            7 113 rmoveto
            -136 -80 165 263 255 72 149 136 131 81 -165 -264 -254 -72 -149 -132 hvcurveto
            endchar
          </CharString>
          <CharString index="307">
            -142 18 -22 28 98 vvcurveto
            407 vlineto
            308 522 91 154 32 28 110 17 rlinecurve
            86 -446 -86 vlineto
            143 -17 10 -36 -78 -148 rrcurveto
            -224 -415 -238 424 -78 139 13 36 139 17 rlinecurve
            86 -683 -86 vlineto
            106 -17 32 -29 86 -144 rrcurveto
            return
          </CharString>
          <CharString index="308">
            412 -1154 272 0 410 1137 63 176 28 29 118 17 rlinecurve
            86 -461 -86 vlineto
            149 -21 19 -34 -54 -164 rrcurveto
            -288 -865 -294 874 -51 156 21 34 144 20 rlinecurve
            86 -691 -86 vlineto
            115 -17 31 -30 57 -158 rrcurveto
            return
          </CharString>
          <CharString index="309">
            rmoveto
            282 vlineto
            108 -1 257 -462 rlineto
            396 81 hlineto
            -66 20 -40 44 -91 167 rrcurveto
            -213 373 37 39 164 161 54 25 112 18 rlinecurve
            86 -452 -86 vlineto
            120 -17 14 -41 -101 -104 -194 -204 rcurveline
            -105 270 hlineto
            114 callsubr
          </CharString>
          <CharString index="310">
            -121 -2 -81 -104 -187 hhcurveto
            -111 -86 hlineto
            148 -22 17 -22 1 -108 5 -641 rcurveline
            -270 1 -136 -145 -222 hhcurveto
            -216 -154 135 274 hvcurveto
            666 vlineto
            91 21 20 144 22 vhcurveto
            86 -670 -86 vlineto
            128 -21 22 -21 -91 vvcurveto
            return
          </CharString>
          <CharString index="311">
            -120 -1 -80 -90 -150 -84 -72 24 -120 hhcurveto
            -322 -235 -225 -309 -317 226 -207 337 hvcurveto
            11 113 rmoveto
            -138 -89 162 263 258 75 149 140 137 90 -162 -264 -258 -75 -148 -140 hvcurveto
            return
          </CharString>
          <CharString index="312">
            299 -762 205 0 293 746 58 146 22 20 91 17 rlinecurve
            86 -384 -86 vlineto
            121 -13 16 -27 -45 -130 rrcurveto
            -162 -461 -163 461 -45 130 17 27 122 13 rlinecurve
            86 -609 -86 vlineto
            90 -19 24 -23 50 -125 rrcurveto
            return
          </CharString>
          <CharString index="313">
            1184 rmoveto
            116 87 90 232 -5 hvcurveto
            -98 hlineto
            -98 -3 -23 -36 -47 hhcurveto
            -30 -26 14 26 -37 hvcurveto
            -31 23 rlineto
            41 -58 -50 24 -64 hhcurveto
            -116 -87 -90 -232 5 hvcurveto
            99 hlineto
            98 2 24 36 46 hhcurveto
            30 26 -14 -26 37 hvcurveto
            32 -23 rlineto
            -41 return
          </CharString>
          <CharString index="314">
            1485 1406 424 rmoveto
            222 -182 125 -271 18 vhcurveto
            209 18 177 103 186 vvcurveto
            223 -215 125 -375 vhcurveto
            -691 -76 callsubr
            -107 callsubr
            196 callsubr
            return
          </CharString>
          <CharString index="315">
            1147 rmoveto
            193 376 rlineto
            12 -274 vlineto
            -24 -388 rlineto
            -207 35 rmoveto
            88 callsubr
            -79 -64 -57 -79 -78 64 -57 79 hvcurveto
            637 hmoveto
            88 callsubr
            -79 -64 -57 -79 -78 63 -57 80 hvcurveto
            endchar
          </CharString>
          <CharString index="316">
            1575 rmoveto
            200 109 131 141 19 -2 19 -3 16 hvcurveto
            -93 5 callgsubr
            return
          </CharString>
          <CharString index="317">
            1018 75 1014 rmoveto
            -7 -333 rlineto
            81 hlineto
            50 183 47 39 172 8 rrcurveto
            161 6 -520 -840 rlineto
            -77 893 vlineto
            6 352 rlineto
            -81 hlineto
            -43 -200 -58 -43 -158 -51 callgsubr
            return
          </CharString>
          <CharString index="318">
            206 142 116 148 88 -54 54 -81 -75 -53 -58 -72 -59 39 -50 52 -12 hvcurveto
            -34 -43 -60 -20 -73 hhcurveto
            -73 -60 20 34 -43 hvcurveto
            52 12 39 49 60 vvcurveto
            72 -54 58 -73 -82 -53 -54 -88 -148 return
          </CharString>
          <CharString index="319">
            -485 rmoveto
            96 95 33 52 41 hvcurveto
            83 vlineto
            -16 -19 -34 -10 -39 hhcurveto
            -58 -51 36 76 82 52 78 146 109 hvcurveto
            -99 hlineto
            -257 -127 -87 -112 -108 vvcurveto
            -113 92 -63 122 vhcurveto
            endchar
          </CharString>
          <CharString index="320">
            -61 -277 -82 -42 -282 -11 rrcurveto
            -269 -9 764 1264 rlineto
            81 -1135 vlineto
            -12 -395 rlineto
            81 hlineto
            52 225 62 52 271 10 rrcurveto
            282 9 -764 -1264 rlineto
            -81 vlineto
            return
          </CharString>
          <CharString index="321">
            443 vlineto
            186 -2 93 -3 27 -37 29 -162 rlinecurve
            77 507 -77 hlineto
            -31 -164 -26 -36 -92 -2 rrcurveto
            -186 -3 0 574 186 -6 245 -11 69 -49 54 -230 rlinecurve
            81 hlineto
            endchar
          </CharString>
          <CharString index="322">
            -29 8 14 -39 vhcurveto
            -35 13 rlineto
            17 -47 -46 13 -51 hhcurveto
            -112 -74 -79 -146 1 hvcurveto
            96 hlineto
            53 1 26 23 45 hhcurveto
            27 29 -8 -14 38 hvcurveto
            36 -13 rlineto
            -17 46 47 -13 51 hhcurveto
            return
          </CharString>
          <CharString index="323">
            649 hlineto
            3 19 2 32 32 vvcurveto
            267 -171 172 -288 -315 -217 -216 21 callgsubr
            -367 -1 rlineto
            204 3 76 108 121 hhcurveto
            return
          </CharString>
          <CharString index="324">
            274 1476 rmoveto
            -89 -64 -57 -90 -1 hvcurveto
            -60 16 -48 33 -119 vhcurveto
            75 -270 61 0 74 270 33 117 17 50 -1 60 rlinecurve
            90 -64 57 -90 vhcurveto
            return
          </CharString>
          <CharString index="325">
            rmoveto
            -100 hlineto
            -261 -129 0 -53 2 callgsubr
            return
          </CharString>
          <CharString index="326">
            vlineto
            380 209 191 259 hvcurveto
            -375 -7 rmoveto
            return
          </CharString>
          <CharString index="327">
            vlineto
            51 30 66 38 86 hhcurveto
            119 70 -70 -131 hvcurveto
            return
          </CharString>
          <CharString index="328">
            vlineto
            48 -2 238 -14 67 -48 46 -232 rlinecurve
            81 hlineto
            return
          </CharString>
          <CharString index="329">
            hlineto
            -268 -67 31 229 -51 hvcurveto
            -81 hlineto
            19 -501 return
          </CharString>
        <CharString name=".notdef">
          2048 106 -494 rmoveto
          100 callgsubr
          198 2444 -198 hlineto
          409 -2444 rmoveto
          100 callgsubr
          100 callgsubr
          197 2444 -197 hlineto
          endchar
        </CharString>
        <CharString name=".null">
          0 endchar
        </CharString>
        <CharString name="A">
          1499 1304 291 -95 callsubr
        </CharString>
        <CharString name="AE">
          1979 1856 1444 146 callsubr
        </CharString>
        <CharString name="AEacute">
          1979 1218 -57 callsubr
          -49 callsubr
          745 -104 146 callsubr
        </CharString>
        <CharString name="AEmacron">
          1979 952 -41 callsubr
          904 -311 146 callsubr
        </CharString>
        <CharString name="Aacute">
          1499 713 -75 callsubr
          698 -1257 -95 callsubr
        </CharString>
        <CharString name="Abreve">
          1499 747 20 callsubr
          -4 16 hvcurveto
          -93 5 callgsubr
          109 -131 200 vhcurveto
          557 -1284 -95 callsubr
        </CharString>
        <CharString name="Abreveacute">
          1499 1068 86 callsubr
          322 -255 100 callsubr
        </CharString>
        <CharString name="Abrevecyrillic">
          1499 747 1570 rmoveto
          204 137 103 136 79 -51 53 -75 -72 -51 -54 -67 -50 30 -43 42 -16 hvcurveto
          -27 -42 -58 -16 -65 hhcurveto
          -65 -57 16 27 -43 hvcurveto
          42 16 31 43 50 vvcurveto
          67 -51 54 -73 -74 -51 -53 -79 -136 137 -103 205 vhcurveto
          557 -1279 -95 callsubr
        </CharString>
        <CharString name="Abrevedotbelow">
          1499 747 20 callsubr
          -4 16 hvcurveto
          -93 5 callgsubr
          109 -131 200 vhcurveto
          557 -1284 rmoveto
          -16 callsubr
          51 callsubr
          -149 -740 -85 callsubr
          -84 callsubr
        </CharString>
        <CharString name="Abrevegrave">
          1499 425 1868 74 callsubr
          322 -492 100 callsubr
        </CharString>
        <CharString name="Abrevehookabove">
          1499 738 2015 rmoveto
          -87 -75 -30 -36 -44 hvcurveto
          -57 vlineto
          13 29 52 13 49 hhcurveto
          74 39 -24 -35 -34 -38 -25 -84 -16 hvcurveto
          76 -44 rlineto
          142 25 80 44 80 vvcurveto
          78 -94 48 -119 vhcurveto
          9 -485 100 callsubr
        </CharString>
        <CharString name="Abrevetilde">
          1499 879 1812 rmoveto
          115 75 67 124 -1 hvcurveto
          -98 hlineto
          -45 -1 -27 -19 -46 hhcurveto
          -28 -29 82 callgsubr
          -77 -68 -124 1 hvcurveto
          99 hlineto
          45 24 callgsubr
          -132 -282 100 callsubr
        </CharString>
        <CharString name="Acaron">
          1499 980 -78 callsubr
          -4 callsubr
          6 callsubr
          219 -1564 -95 callsubr
        </CharString>
        <CharString name="Acircumflex">
          1499 543 -67 callsubr
          -38 callsubr
          866 -1257 -95 callsubr
        </CharString>
        <CharString name="Acircumflexacute">
          1499 1068 1848 75 callsubr
          1 -270 -39 callsubr
          -293 162 -58 0 -291 -162 rlineto
          878 -1277 -95 callsubr
        </CharString>
        <CharString name="Acircumflexdotbelow">
          1499 543 -67 callsubr
          -38 callsubr
          866 -1257 rmoveto
          -16 callsubr
          51 callsubr
          -149 -740 -85 callsubr
          -84 callsubr
        </CharString>
        <CharString name="Acircumflexgrave">
          1499 425 1848 74 callsubr
          1 -507 -39 callsubr
          -293 162 -58 0 -291 -162 rlineto
          878 -1277 -95 callsubr
        </CharString>
        <CharString name="Acircumflexhookabove">
          1499 1015 134 callsubr
          27 51 12 47 hhcurveto
          71 36 -24 -34 -34 -35 -25 -81 -16 hvcurveto
          73 -44 rlineto
          136 25 76 44 79 vvcurveto
          79 -90 48 -115 vhcurveto
          -589 -470 -39 callsubr
          -293 162 -58 0 -291 -162 rlineto
          878 -1277 -95 callsubr
        </CharString>
        <CharString name="Acircumflextilde">
          1499 879 1792 rmoveto
          115 75 67 124 -1 hvcurveto
          -98 hlineto
          -44 -1 -27 -20 -46 hhcurveto
          -28 -29 129 callsubr
          -77 -67 -124 1 hvcurveto
          99 hlineto
          45 24 callgsubr
          -453 -297 -39 callsubr
          -293 162 -58 0 -291 -162 rlineto
          878 -1277 -95 callsubr
        </CharString>
        <CharString name="Acyrillic">
          1499 1304 291 -95 callsubr
        </CharString>
        <CharString name="Adblgrave">
          1499 571 135 callsubr
          -34 callgsubr
          307 -1256 -95 callsubr
        </CharString>
        <CharString name="Adieresis">
          1499 566 1569 rmoveto
          -28 callsubr
          60 -55 -33 callgsubr
          -74 -61 -55 -75 -75 60 -55 75 hvcurveto
          377 -1278 -95 callsubr
        </CharString>
        <CharString name="Adieresismacron">
          1499 425 1842 rmoveto
          643 122 -643 hlineto
          155 -412 -27 callsubr
          -41 callgsubr
          74 callgsubr
          -49 -40 -54 -55 49 -39 61 hvcurveto
          392 -1261 -95 callsubr
        </CharString>
        <CharString name="Adotaccent">
          1499 747 -62 callsubr
          -77 callsubr
          -97 callgsubr
          557 -1271 -95 callsubr
        </CharString>
        <CharString name="Adotbelow">
          1499 1304 291 rmoveto
          -16 callsubr
          51 callsubr
          -149 -740 -85 callsubr
          -84 callsubr
        </CharString>
        <CharString name="Adotmacron">
          1499 425 62 callgsubr
          66 53 44 60 59 -53 44 -66 -67 -53 -44 -59 -60 53 -44 67 hvcurveto
          557 -1251 -95 callsubr
        </CharString>
        <CharString name="Agrave">
          1499 809 -71 callgsubr
          862 -1548 -95 callsubr
        </CharString>
        <CharString name="Ahookabove">
          1499 781 62 callsubr
          26 73 callsubr
          -90 -56 hvcurveto
          89 hlineto
          170 61 64 59 76 vvcurveto
          84 -79 58 -117 vhcurveto
          523 -1603 -95 callsubr
        </CharString>
        <CharString name="Ainvertedbreve">
          1499 746 -18 callgsubr
          93 vlineto
          4 16 1 143 callsubr
          558 -1610 -95 callsubr
        </CharString>
        <CharString name="Alphagreek">
          1499 1304 291 -95 callsubr
        </CharString>
        <CharString name="Alphatonosgreek">
          1499 1304 291 rmoveto
          -16 callsubr
          691 86 vlineto
          -115 17 -31 30 -57 158 rrcurveto
          -1075 765 133 callsubr
          316 -472 rmoveto
          198 586 200 -586 rlineto
          endchar
        </CharString>
        <CharString name="Amacron">
          1499 446 -41 callsubr
          858 -1464 -95 callsubr
        </CharString>
        <CharString name="Aogonek">
          1499 1178 -487 rmoveto
          101 86 43 64 37 hvcurveto
          83 vlineto
          -15 -15 -28 -11 -32 hhcurveto
          -69 -62 78 110 53 13 50 22 32 hvcurveto
          276 86 hlineto
          -115 17 -31 30 -57 158 rrcurveto
          -16 callsubr
          312 vlineto
          -100 -70 -74 -106 -110 vvcurveto
          -122 97 -79 127 vhcurveto
          -745 1071 rmoveto
          198 586 200 -586 rlineto
          endchar
        </CharString>
        <CharString name="Aring">
          1499 470 1745 rmoveto
          -116 119 -77 158 158 118 77 116 116 -118 79 -158 -159 -3 callgsubr
          648 -1454 -95 callsubr
        </CharString>
        <CharString name="Aringacute">
          1499 1068 17 callgsubr
          93 44 68 67 -93 44 -141 hvcurveto
          -73 hlineto
          -140 -94 -44 -67 -68 94 -44 140 hvcurveto
          57 61 rmoveto
          -42 hlineto
          -44 -24 20 31 30 25 19 43 hvcurveto
          42 hlineto
          44 24 -19 -30 -31 -24 -20 -44 hvcurveto
          537 -1288 -95 callsubr
        </CharString>
        <CharString name="Aringbelow">
          1499 1304 291 rmoveto
          -16 callsubr
          51 callsubr
          -456 -876 -19 callgsubr
          42 45 58 57 43 -44 -65 -66 -43 -44 -57 -58 -42 44 65 vhcurveto
          endchar
        </CharString>
        <CharString name="Atilde">
          1499 875 152 callsubr
          429 -1262 -95 callsubr
        </CharString>
        <CharString name="B">
          1485 1406 424 99 callsubr
        </CharString>
        <CharString name="Bdotaccent">
          1485 737 -62 callsubr
          -77 callsubr
          1 callsubr
          669 -1138 99 callsubr
        </CharString>
        <CharString name="Bdotbelow">
          207 callsubr
          -293 -563 126 callsubr
        </CharString>
        <CharString name="Becyrillic">
          1431 1363 421 rmoveto
          258 -220 155 -385 vhcurveto
          -193 510 hlineto
          212 -7 252 -7 67 -43 55 -224 rlinecurve
          81 hlineto
          -11 381 rlineto
          -1163 -86 hlineto
          133 -18 19 -22 -89 vvcurveto
          -1014 vlineto
          -89 -19 -22 -133 -18 vhcurveto
          -86 703 vlineto
          377 225 161 260 hvcurveto
          -375 -4 rmoveto
          -191 -109 -114 -220 -8 vhcurveto
          -94 -3 0 628 94 -3 rlineto
          215 -8 114 -115 -186 vvcurveto
          endchar
        </CharString>
        <CharString name="Betagreek">
          1485 1406 424 99 callsubr
        </CharString>
        <CharString name="Blinebelow">
          207 callsubr
          -604 -777 2 callsubr
        </CharString>
        <CharString name="C">
          1458 90 721 -13 callsubr
          -34 callsubr
        </CharString>
        <CharString name="Cacute">
          1458 836 -75 callsubr
          -639 -827 -13 callsubr
          -34 callsubr
        </CharString>
        <CharString name="Ccaron">
          1458 1103 -78 callsubr
          106 callsubr
          -1118 -1134 -13 callsubr
          -34 callsubr
        </CharString>
        <CharString name="Ccedilla">
          1458 90 721 rmoveto
          -441 315 -278 413 -28 vhcurveto
          -105 -125 -30 callsubr
          -25 -49 -48 -46 -26 -63 -51 -52 -7 callsubr
          -12 callsubr
          59 68 rlineto
          185 6 172 47 83 60 10 375 rcurveline
          -49 callgsubr
          -34 callsubr
        </CharString>
        <CharString name="Ccedillaacute">
          1458 836 -75 callsubr
          -639 -827 rmoveto
          -441 315 -278 413 -28 vhcurveto
          -105 -125 -30 callsubr
          -25 -49 -48 -46 -26 -63 -51 -52 -7 callsubr
          -12 callsubr
          59 68 rlineto
          185 6 172 47 83 60 10 375 rcurveline
          -49 callgsubr
          -34 callsubr
        </CharString>
        <CharString name="Ccircumflex">
          1458 666 -67 callsubr
          -88 callgsubr
          -471 -827 -13 callsubr
          -34 callsubr
        </CharString>
        <CharString name="Cdotaccent">
          1458 870 -62 callsubr
          -77 callsubr
          81 callsubr
          -780 -841 -13 callsubr
          -34 callsubr
        </CharString>
        <CharString name="Checyrillic">
          1656 1445 99 callgsubr
          -650 -86 vlineto
          124 -17 18 -19 -87 vvcurveto
          -502 vlineto
          -27 -66 -90 -16 -97 hhcurveto
          -202 -98 103 223 hvcurveto
          219 vlineto
          87 19 19 124 17 vhcurveto
          86 -640 -86 vlineto
          124 -17 19 -19 -87 vvcurveto
          -214 vlineto
          -318 206 -151 322 155 137 32 41 87 vhcurveto
          -397 vlineto
          -97 -23 -26 -147 -19 vhcurveto
          -86 678 86 vlineto
          -133 18 -20 22 89 vvcurveto
          endchar
        </CharString>
        <CharString name="Chigreek">
          1460 285 308 40 callsubr
        </CharString>
        <CharString name="D">
          1638 26 callsubr
          endchar
        </CharString>
        <CharString name="Dbar">
          1638 58 690 rmoveto
          153 -475 hlineto
          -89 -19 -22 -134 -18 vhcurveto
          -86 661 vlineto
          461 380 285 459 451 -348 249 -509 hvcurveto
          -645 -76 callsubr
          -439 -153 vlineto
          1111 -67 -56 callgsubr
          rlineto
          591 281 100 -281 555 vlineto
          93 -3 rlineto
          317 -10 193 -243 -366 vvcurveto
          endchar
        </CharString>
        <CharString name="Dcaron">
          1638 1013 -78 callsubr
          -4 callsubr
          6 callsubr
          442 -1111 121 callsubr
          endchar
        </CharString>
        <CharString name="Dcircumflexbelow">
          1638 26 callsubr
          -653 -1189 180 callsubr
        </CharString>
        <CharString name="Dcommaaccent">
          1638 26 callsubr
          -453 -1201 28 callsubr
          169 callsubr
          -43 -25 -67 84 callgsubr
        </CharString>
        <CharString name="Ddotaccent">
          1638 779 123 callsubr
          781 -818 121 callsubr
          endchar
        </CharString>
        <CharString name="Ddotbelow">
          1638 26 callsubr
          -433 -879 -85 callsubr
          -84 callsubr
        </CharString>
        <CharString name="Decyrillic">
          1546 1499 106 rmoveto
          -191 1109 84 callsubr
          -1280 -86 vlineto
          153 -18 34 -27 -5 -132 rrcurveto
          -8 -211 -14 -403 -46 -292 -133 -169 rlinecurve
          -149 hlineto
          -8 -435 rlineto
          88 hlineto
          277 63 89 52 255 hhcurveto
          501 hlineto
          267 78 -63 -266 61 hvcurveto
          88 hlineto
          -554 435 rmoveto
          -630 hlineto
          113 175 43 274 14 415 12 368 rcurveline
          448 hlineto
          endchar
        </CharString>
        <CharString name="Deltagreek">
          1383 39 hmoveto
          1305 179 hlineto
          -516 1267 -272 0 -517 -1266 rlineto
          155 52 rmoveto
          385 965 372 -965 rlineto
          endchar
        </CharString>
        <CharString name="Djecyrillic">
          1791 -42 callsubr
          -21 callgsubr
          431 vlineto
          28 47 72 18 78 hhcurveto
          188 115 -127 -260 hvcurveto
          1 -270 -101 -216 -198 -136 41 -71 rcurveline
          361 136 251 253 338 vvcurveto
          319 -213 176 -303 -148 -123 -38 -42 -68 vhcurveto
          587 88 callgsubr
        </CharString>
        <CharString name="Dlinebelow">
          1638 26 callsubr
          -743 -1093 -56 callsubr
        </CharString>
        <CharString name="Dzecyrillic">
          1285 607 -28 92 callsubr
          endchar
        </CharString>
        <CharString name="Dzhecyrillic">
          1705 1493 1229 rmoveto
          89 20 -70 callgsubr
          -85 vvcurveto
          -1129 -573 1129 vlineto
          85 20 20 123 18 vhcurveto
          86 -651 82 callsubr
          -107 callsubr
          565 vlineto
          113 25 -31 -286 48 hvcurveto
          87 hlineto
          286 48 24 31 113 hhcurveto
          566 86 hlineto
          -134 18 -20 22 89 vvcurveto
          endchar
        </CharString>
        <CharString name="E">
          1337 1215 1444 -93 callsubr
        </CharString>
        <CharString name="Eacute">
          1337 666 -57 callsubr
          -49 callsubr
          656 -104 -93 callsubr
        </CharString>
        <CharString name="Ebreve">
          1337 700 20 callsubr
          -64 callgsubr
          64 86 -81 callgsubr
          -40 callgsubr
          515 -131 -93 callsubr
        </CharString>
        <CharString name="Ecaron">
          1337 934 -78 callsubr
          56 callsubr
          177 -411 -93 callsubr
        </CharString>
        <CharString name="Ecedilla">
          1337 667 -478 -92 callgsubr
          80 93 rlineto
          3 498 vlineto
          -81 callsubr
          -48 callsubr
          -11 395 rlineto
          -43 callsubr
          600 vlineto
          -126 -151 -30 callsubr
          116 callsubr
        </CharString>
        <CharString name="Ecedillabreve">
          1337 700 20 callsubr
          -64 callgsubr
          64 86 -81 callgsubr
          -40 callgsubr
          -33 -2053 -92 callgsubr
          80 93 rlineto
          3 498 vlineto
          -81 callsubr
          -48 callsubr
          -11 395 rlineto
          -43 callsubr
          600 vlineto
          -126 -151 -30 callsubr
          116 callsubr
        </CharString>
        <CharString name="Ecircumflex">
          1337 496 167 callsubr
          823 -104 -93 callsubr
        </CharString>
        <CharString name="Ecircumflexacute">
          1337 1022 1848 75 callsubr
          -270 vmoveto
          321 86 321 -86 0 73 25 callsubr
          836 -124 -93 callsubr
        </CharString>
        <CharString name="Ecircumflexbelow">
          1337 1215 1444 rmoveto
          -43 callsubr
          1203 vlineto
          -81 callsubr
          -48 callsubr
          -747 -1515 rmoveto
          221 142 callsubr
          78 callsubr
        </CharString>
        <CharString name="Ecircumflexdotbelow">
          1337 496 167 callsubr
          823 -104 rmoveto
          -43 callsubr
          1203 vlineto
          -81 callsubr
          -48 callsubr
          -527 -1205 184 callsubr
        </CharString>
        <CharString name="Ecircumflexgrave">
          1337 378 1848 74 callsubr
          1 -507 -39 callsubr
          25 callsubr
          836 -124 -93 callsubr
        </CharString>
        <CharString name="Ecircumflexhookabove">
          1337 968 134 callsubr
          158 callsubr
          -58 0 -292 -162 rlineto
          836 -124 -93 callsubr
        </CharString>
        <CharString name="Ecircumflextilde">
          1337 832 181 callsubr
          -27 -30 129 callsubr
          140 callsubr
          64 callsubr
          -453 -297 -39 callsubr
          25 callsubr
          836 -124 -93 callsubr
        </CharString>
        <CharString name="Ecyrillic">
          1479 90 721 -13 callsubr
          -254 -161 259 335 -16 hvcurveto
          596 -10 0 127 -597 -10 rlineto
          340 14 156 225 261 hhcurveto
          -20 callgsubr
        </CharString>
        <CharString name="Edblgrave">
          1337 525 135 callsubr
          118 hlineto
          255 128 callsubr
          264 -103 -93 callsubr
        </CharString>
        <CharString name="Edieresis">
          1337 520 77 callsubr
          -51 callsubr
          33 callsubr
          334 -125 -93 callsubr
        </CharString>
        <CharString name="Edotaccent">
          1337 700 -62 callsubr
          -77 callsubr
          1 callsubr
          515 -118 -93 callsubr
        </CharString>
        <CharString name="Edotbelow">
          1337 1215 1444 rmoveto
          -43 callsubr
          1203 vlineto
          -81 callsubr
          -48 callsubr
          -527 -1205 184 callsubr
        </CharString>
        <CharString name="Efcyrillic">
          2012 65 717 rmoveto
          -291 267 -186 508 -12 vhcurveto
          -27 vlineto
          -98 -22 -27 -142 -19 vhcurveto
          -85 660 85 vlineto
          -142 19 -22 27 98 vvcurveto
          27 vlineto
          513 12 261 183 299 vvcurveto
          288 -244 193 -530 13 vhcurveto
          27 vlineto
          98 22 27 142 19 vhcurveto
          85 -660 -85 vlineto
          142 -19 22 -27 -98 vvcurveto
          -27 vlineto
          -535 -12 -240 -191 -296 vvcurveto
          1507 4 rmoveto
          -203 -124 -165 -276 -20 vhcurveto
          778 vlineto
          289 -19 111 -167 -204 vvcurveto
          -1132 4 rmoveto
          201 116 166 284 19 vhcurveto
          -778 vlineto
          -281 19 -119 167 206 vvcurveto
          endchar
        </CharString>
        <CharString name="Egrave">
          1337 763 60 callsubr
          820 -395 -93 callsubr
        </CharString>
        <CharString name="Ehookabove">
          1337 735 1894 rmoveto
          -110 -80 -48 -50 -40 hvcurveto
          -64 vlineto
          20 27 73 callsubr
          -90 -56 hvcurveto
          89 hlineto
          170 61 63 59 76 vvcurveto
          84 -79 58 -116 vhcurveto
          480 -450 -93 callsubr
        </CharString>
        <CharString name="Einvertedbreve">
          1337 700 12 callgsubr
          85 63 126 125 76 callgsubr
          -108 131 -200 vhcurveto
          515 -457 -93 callsubr
        </CharString>
        <CharString name="Elcyrillic">
          1559 14 callgsubr
          442 -1123 hlineto
          -91 -21 -20 -131 -18 vhcurveto
          -86 660 86 vlineto
          -132 18 -21 20 91 vvcurveto
          1014 vlineto
          91 21 20 132 18 vhcurveto
          86 -1262 -86 vlineto
          157 -17 29 -36 -10 callgsubr
          endchar
        </CharString>
        <CharString name="Emacron">
          1337 400 -41 callsubr
          815 -311 -93 callsubr
        </CharString>
        <CharString name="Emacronacute">
          1337 1022 86 callsubr
          -1 -200 -80 callgsubr
          837 -263 -93 callsubr
        </CharString>
        <CharString name="Emacrongrave">
          1337 378 1868 74 callsubr
          -437 vmoveto
          644 122 -644 hlineto
          837 -263 -93 callsubr
        </CharString>
        <CharString name="Emcyrillic">
          1915 616 1444 41 callsubr
        </CharString>
        <CharString name="Encyrillic">
          12 callsubr
          -61 callsubr
          -63 callsubr
          -3 callsubr
        </CharString>
        <CharString name="Eogonek">
          1337 1050 -487 rmoveto
          101 85 43 64 38 hvcurveto
          83 vlineto
          -15 -15 -28 -11 -32 hhcurveto
          -69 -61 78 110 53 12 50 22 32 hvcurveto
          158 hlineto
          -81 callsubr
          -48 callsubr
          -11 395 rlineto
          -43 callsubr
          942 vlineto
          -100 -70 -74 -106 -110 vvcurveto
          -122 96 -79 128 vhcurveto
          endchar
        </CharString>
        <CharString name="Epsilongreek">
          1337 1215 1444 -93 callsubr
        </CharString>
        <CharString name="Epsilontonosgreek">
          1698 1576 1444 rmoveto
          -43 callsubr
          1203 vlineto
          -81 callsubr
          -48 callsubr
          -1472 7 133 callsubr
          endchar
        </CharString>
        <CharString name="Ercyrillic">
          1448 1369 1014 42 callsubr
        </CharString>
        <CharString name="Ereversedcyrillic">
          1483 118 84 rmoveto
          -63 92 196 -49 189 hhcurveto
          455 343 291 473 460 -328 276 -468 -211 -173 -45 -61 -89 hvcurveto
          -11 -336 rlineto
          81 hlineto
          228 54 129 97 188 hhcurveto
          254 163 -217 -347 18 hvcurveto
          -596 9 0 -127 597 9 rlineto
          -344 -13 -168 -249 -257 hhcurveto
          -179 -139 84 247 -57 hvcurveto
          -81 hlineto
          endchar
        </CharString>
        <CharString name="Escyrillic">
          1458 90 721 -13 callsubr
          -34 callsubr
        </CharString>
        <CharString name="Etagreek">
          12 callsubr
          -61 callsubr
          -63 callsubr
          -3 callsubr
        </CharString>
        <CharString name="Etatonosgreek">
          2077 927 209 rmoveto
          -2 callgsubr
          -61 callsubr
          -20 -21 -133 -19 vhcurveto
          -86 651 86 vlineto
          36 callsubr
          -812 847 133 callsubr
          endchar
        </CharString>
        <CharString name="Etilde">
          1337 829 1553 67 callsubr
          -62 callgsubr
          165 callsubr
          -20 rlineto
          -38 56 47 -22 61 hhcurveto
          386 -109 -93 callsubr
        </CharString>
        <CharString name="Etildebelow">
          1337 1215 1444 rmoveto
          -43 callsubr
          1203 vlineto
          -81 callsubr
          -48 callsubr
          -401 -1482 rmoveto
          107 81 81 209 -4 hvcurveto
          -92 hlineto
          -89 -2 -22 -32 -43 hhcurveto
          -28 -24 12 24 -35 hvcurveto
          -29 21 rlineto
          36 -54 -46 22 -60 hhcurveto
          -107 -12 callgsubr
        </CharString>
        <CharString name="F">
          1246 1190 1444 rmoveto
          -1132 -76 callsubr
          -107 callsubr
          -19 callsubr
          214 callsubr
        </CharString>
        <CharString name="Fdotaccent">
          1246 690 -89 callgsubr
          500 -118 rmoveto
          -1132 -76 callsubr
          -107 callsubr
          -19 callsubr
          214 callsubr
        </CharString>
        <CharString name="G">
          1595 90 719 -17 callsubr
        </CharString>
        <CharString name="Gacute">
          1595 832 137 callsubr
          -636 -829 -17 callsubr
        </CharString>
        <CharString name="Gammagreek">
          1233 1174 1444 rmoveto
          -1116 -76 callsubr
          -107 callsubr
          -19 callsubr
          1115 vlineto
          178 -6 238 -8 69 -46 53 -222 rlinecurve
          81 hlineto
          endchar
        </CharString>
        <CharString name="Gbreve">
          1595 866 209 callsubr
          108 -131 200 vhcurveto
          -776 -856 -17 callsubr
        </CharString>
        <CharString name="Gcaron">
          1595 1100 -78 callsubr
          -58 callgsubr
          -1115 -1136 -17 callsubr
        </CharString>
        <CharString name="Gcircumflex">
          1595 663 -67 callsubr
          -38 callsubr
          -468 -829 -17 callsubr
        </CharString>
        <CharString name="Gcommaaccent">
          1595 90 719 rmoveto
          -455 340 -292 450 215 211 52 81 120 vhcurveto
          395 vlineto
          86 17 20 127 15 vhcurveto
          85 -613 -85 vlineto
          139 -15 18 -20 -85 vvcurveto
          -359 vlineto
          -33 -43 -72 -20 -87 hhcurveto
          -267 -163 287 364 367 156 248 276 197 128 -124 -234 56 hvcurveto
          80 hlineto
          -9 374 rlineto
          61 -89 -173 40 -217 hhcurveto
          -454 -343 -276 -477 hvcurveto
          760 -1197 166 callsubr
          -56 66 callsubr
        </CharString>
        <CharString name="Gdotaccent">
          1595 866 -89 callgsubr
          -776 -843 -17 callsubr
        </CharString>
        <CharString name="Geacutecyrillic">
          1233 608 -75 callsubr
          673 -104 rmoveto
          -1116 -76 callsubr
          -107 callsubr
          -19 callsubr
          41 callgsubr
        </CharString>
        <CharString name="Gecyrillic">
          1233 1174 1444 rmoveto
          -1116 -76 callsubr
          -107 callsubr
          -19 callsubr
          41 callgsubr
        </CharString>
        <CharString name="Germandbls">
          1589 566 hmoveto
          1345 vlineto
          182 -6 rlineto
          261 -10 108 -109 -144 vvcurveto
          -128 -84 -81 -141 -19 vhcurveto
          -216 vlineto
          203 -50 114 -122 -165 vvcurveto
          -131 -72 -75 -106 -127 -95 120 194 -32 vhcurveto
          -81 -345 hlineto
          -45 63 128 -40 157 hhcurveto
          230 236 133 278 227 -133 179 -208 65 hvcurveto
          166 19 118 99 144 vvcurveto
          196 -184 131 -418 vhcurveto
          -793 -86 hlineto
          134 -17 19 -22 -88 vvcurveto
          -1018 vlineto
          -88 -19 -22 -134 -17 vhcurveto
          -86 vlineto
          endchar
        </CharString>
        <CharString name="Geupturncyrillic">
          1203 1146 1338 rmoveto
          9 426 rlineto
          -87 hlineto
          -280 -83 -49 -40 -224 hhcurveto
          -654 -76 callsubr
          -107 callsubr
          -19 callsubr
          1108 vlineto
          endchar
        </CharString>
        <CharString name="Gmacron">
          1595 566 -41 callsubr
          -476 -1036 -17 callsubr
        </CharString>
        <CharString name="H">
          12 callsubr
          -61 callsubr
          -63 callsubr
          -3 callsubr
        </CharString>
        <CharString name="Hacyrillic">
          1460 285 308 40 callsubr
        </CharString>
        <CharString name="Hardsigncyrillic">
          1676 1606 176 callsubr
          -918 vlineto
          -11 -381 rlineto
          81 hlineto
          45 227 64 42 213 9 6 1 rcurveline
          -1118 vlineto
          -95 -21 -25 -141 -18 vhcurveto
          -86 725 219 callsubr
          -202 -100 -129 -218 -8 vhcurveto
          -104 -3 0 678 95 -1 rlineto
          205 -2 122 -123 -210 vvcurveto
          endchar
        </CharString>
        <CharString name="Hbar">
          12 callsubr
          809 153 99 -153 106 26 callgsubr
          -112 -583 112 vlineto
          85 20 20 123 18 vhcurveto
          86 -651 82 callsubr
          -106 -153 -99 153 -809 vlineto
          -89 -63 callsubr
          651 86 vlineto
          36 callsubr
          581 vmoveto
          234 583 -234 vlineto
          endchar
        </CharString>
        <CharString name="Hbrevebelow">
          12 callsubr
          -61 callsubr
          -63 callsubr
          651 86 vlineto
          36 callsubr
          293 -669 rmoveto
          204 109 135 146 20 -1 20 -3 17 hvcurveto
          -92 -5 hlineto
          -89 -86 -65 -131 -130 -88 45 callgsubr
          205 vhcurveto
          endchar
        </CharString>
        <CharString name="Hcaron">
          1715 1092 1854 rmoveto
          -219 -142 -217 142 -108 0 213 -300 6 callsubr
          -631 -1645 rmoveto
          -2 callgsubr
          -61 callsubr
          -63 callsubr
          -3 callsubr
        </CharString>
        <CharString name="Hcedilla">
          1715 346 -478 60 callgsubr
          -4 0 -4 hhcurveto
          81 96 rlineto
          267 86 hlineto
          36 callsubr
          -2 callgsubr
          -61 callsubr
          -63 callsubr
          277 vlineto
          -124 -151 -30 callsubr
          -26 -48 -48 -46 -26 -63 -52 -52 15 20 -30 hvcurveto
          -83 vlineto
          -41 45 80 -27 95 hhcurveto
          endchar
        </CharString>
        <CharString name="Hcircumflex">
          1715 655 1547 rmoveto
          219 143 218 -143 107 0 -213 300 -38 callsubr
          16 -1338 rmoveto
          -2 callgsubr
          -61 callsubr
          -63 callsubr
          -3 callsubr
        </CharString>
        <CharString name="Hdieresis">
          1715 679 1568 rmoveto
          74 60 55 75 76 -60 54 -74 -75 -60 -54 -76 -75 60 -55 75 hvcurveto
          360 hmoveto
          75 60 55 75 76 -60 54 -75 -74 -60 -54 -76 -75 60 -55 74 hvcurveto
          -473 -1359 rmoveto
          -2 callgsubr
          -61 callsubr
          -63 callsubr
          -3 callsubr
        </CharString>
        <CharString name="Hdotaccent">
          1715 859 1562 rmoveto
          88 callsubr
          -80 -63 -57 -79 -78 63 -57 80 hvcurveto
          -293 -1353 rmoveto
          -2 callgsubr
          -61 callsubr
          -63 callsubr
          -3 callsubr
        </CharString>
        <CharString name="Hdotbelow">
          12 callsubr
          -61 callsubr
          -63 callsubr
          651 86 vlineto
          36 callsubr
          293 -365 -85 callsubr
          78 64 90 callsubr
        </CharString>
        <CharString name="I">
          777 566 -36 callsubr
          -105 callsubr
          -107 callsubr
          -83 callsubr
        </CharString>
        <CharString name="IAcyrillic">
          1479 130 1018 rmoveto
          -190 129 -114 167 -42 vhcurveto
          -195 -337 -113 -190 -32 -41 -66 -23 rlinecurve
          -81 378 vlineto
          352 624 rlineto
          155 -415 hlineto
          -85 -18 -20 -125 -18 vhcurveto
          -86 650 86 vlineto
          -132 19 -21 21 89 vvcurveto
          1014 vlineto
          89 21 22 132 18 vhcurveto
          86 -712 vlineto
          -382 -188 -173 -253 hvcurveto
          359 18 rmoveto
          191 108 108 205 7 vhcurveto
          103 3 0 -621 -105 1 rlineto
          -181 3 -130 113 195 vvcurveto
          endchar
        </CharString>
        <CharString name="IJ">
          1555 566 -36 callsubr
          -105 callsubr
          -107 callsubr
          661 -25 callsubr
          777 60 rmoveto
          954 vlineto
          89 20 22 133 18 vhcurveto
          86 -105 callsubr
          -59 callgsubr
          36 -74 rlineto
          395 -101 callgsubr
        </CharString>
        <CharString name="IJacute">
          1555 355 -75 callsubr
          884 hmoveto
          97 callgsubr
          -459 -1333 -82 callsubr
          -105 callsubr
          -107 callsubr
          661 -25 callsubr
          777 60 rmoveto
          954 vlineto
          89 20 22 133 18 vhcurveto
          86 -105 callsubr
          -59 callgsubr
          36 -74 rlineto
          395 -101 callgsubr
        </CharString>
        <CharString name="IUcyrillic">
          2380 566 209 rmoveto
          475 201 vlineto
          -437 17 332 -275 411 hhcurveto
          461 302 326 427 hvcurveto
          458 1 -340 289 -421 hhcurveto
          -436 -293 -291 -391 -32 hvcurveto
          -203 445 hlineto
          85 20 20 123 18 vhcurveto
          86 -651 82 callsubr
          -107 callsubr
          -5 callsubr
          972 -120 rmoveto
          -238 -143 275 373 361 106 257 256 237 144 -275 -372 hvcurveto
          -361 -1 -106 -258 -255 hhcurveto
          endchar
        </CharString>
        <CharString name="Iacute">
          777 355 -75 callsubr
          318 -1333 -82 callsubr
          -105 callsubr
          -107 callsubr
          -83 callsubr
        </CharString>
        <CharString name="Ibreve">
          777 389 20 callsubr
          -3 16 hvcurveto
          -94 5 callgsubr
          109 -131 200 vhcurveto
          177 -1360 -82 callsubr
          -105 callsubr
          -107 callsubr
          -83 callsubr
        </CharString>
        <CharString name="Icaron">
          777 622 -78 callsubr
          -4 callsubr
          6 callsubr
          -161 -1640 -82 callsubr
          -105 callsubr
          -107 callsubr
          -83 callsubr
        </CharString>
        <CharString name="Icircumflex">
          777 185 -67 callsubr
          -38 callsubr
          486 -1333 -82 callsubr
          -105 callsubr
          -107 callsubr
          -83 callsubr
        </CharString>
        <CharString name="Icyrillic">
          777 566 -36 callsubr
          -105 callsubr
          -107 callsubr
          -83 callsubr
        </CharString>
        <CharString name="Idblgrave">
          777 213 135 callsubr
          -34 callgsubr
          -73 -1332 -82 callsubr
          -105 callsubr
          -107 callsubr
          -83 callsubr
        </CharString>
        <CharString name="Idieresis">
          777 209 1569 rmoveto
          138 callsubr
          360 hmoveto
          -28 callsubr
          59 -55 75 hvcurveto
          -3 -1354 -82 callsubr
          -105 callsubr
          -107 callsubr
          -83 callsubr
        </CharString>
        <CharString name="Idieresisacute">
          777 710 130 callsubr
          155 -233 rmoveto
          -55 callsubr
          74 callgsubr
          -48 -40 -54 -55 48 -39 61 hvcurveto
          12 -1337 -82 callsubr
          -105 callsubr
          -107 callsubr
          -83 callsubr
        </CharString>
        <CharString name="Idotaccent">
          777 389 -62 callsubr
          -77 callsubr
          -97 callgsubr
          177 -1347 -82 callsubr
          -105 callsubr
          -107 callsubr
          -83 callsubr
        </CharString>
        <CharString name="Idotbelow">
          777 566 -36 callsubr
          -105 callsubr
          -107 callsubr
          661 -25 callsubr
          -175 -371 -85 callsubr
          -84 callsubr
        </CharString>
        <CharString name="Iecyrillic">
          1337 1215 1444 -93 callsubr
        </CharString>
        <CharString name="Igrave">
          777 451 -71 callgsubr
          482 -1624 -82 callsubr
          -105 callsubr
          -107 callsubr
          -83 callsubr
        </CharString>
        <CharString name="Ihookabove">
          777 423 62 callsubr
          26 47 16 51 hhcurveto
          66 40 -27 -44 -45 -37 -40 -91 -56 hvcurveto
          89 hlineto
          170 61 64 59 76 vvcurveto
          84 -79 58 -117 vhcurveto
          143 -1679 -82 callsubr
          -105 callsubr
          -107 callsubr
          -83 callsubr
        </CharString>
        <CharString name="Iicyrillic">
          1742 566 209 rmoveto
          43 vlineto
          610 781 rlineto
          -824 vlineto
          -87 -19 -19 -124 -17 vhcurveto
          -86 651 86 vlineto
          -133 18 -20 20 91 vvcurveto
          1014 vlineto
          91 20 20 133 18 vhcurveto
          86 -651 -86 vlineto
          124 -17 19 -19 -87 vvcurveto
          -43 vlineto
          -610 -781 rlineto
          824 vlineto
          85 20 20 123 18 vhcurveto
          86 -651 82 callsubr
          -107 callsubr
          -5 callsubr
          endchar
        </CharString>
        <CharString name="Iinvertedbreve">
          777 388 -18 callgsubr
          94 vlineto
          3 16 1 143 callsubr
          178 -1686 -82 callsubr
          -105 callsubr
          -107 callsubr
          -83 callsubr
        </CharString>
        <CharString name="Iishortcyrillic">
          1742 871 1570 rmoveto
          -45 callgsubr
          -72 -52 -77 callgsubr
          83 callgsubr
          -305 -1361 rmoveto
          43 vlineto
          610 781 rlineto
          -824 vlineto
          -87 -19 -19 -124 -17 vhcurveto
          -86 651 86 vlineto
          -133 18 -20 20 91 vvcurveto
          1014 vlineto
          91 20 20 133 18 vhcurveto
          86 -651 -86 vlineto
          124 -17 19 -19 -87 vvcurveto
          -43 vlineto
          -610 -781 rlineto
          824 vlineto
          85 20 20 123 18 vhcurveto
          86 -651 82 callsubr
          -107 callsubr
          -5 callsubr
          endchar
        </CharString>
        <CharString name="Imacron">
          777 88 -41 callsubr
          478 -1540 -82 callsubr
          -105 callsubr
          -107 callsubr
          -83 callsubr
        </CharString>
        <CharString name="Iocyrillic">
          1337 520 77 callsubr
          -51 callsubr
          33 callsubr
          334 -125 -93 callsubr
        </CharString>
        <CharString name="Iogonek">
          777 566 -36 callsubr
          -105 callsubr
          -107 callsubr
          295 vlineto
          -100 -70 -75 -106 -110 172 callsubr
          78 110 53 13 50 21 32 hvcurveto
          264 86 hlineto
          -134 18 -19 22 89 vvcurveto
          endchar
        </CharString>
        <CharString name="Iotadieresisgreek">
          777 209 1569 rmoveto
          138 callsubr
          360 hmoveto
          -28 callsubr
          59 -55 75 hvcurveto
          -3 -1354 -82 callsubr
          -105 callsubr
          -107 callsubr
          -83 callsubr
        </CharString>
        <CharString name="Iotagreek">
          777 566 -36 callsubr
          -105 callsubr
          -107 callsubr
          -83 callsubr
        </CharString>
        <CharString name="Iotatonosgreek">
          1138 927 -36 callsubr
          -105 callsubr
          -107 callsubr
          661 -25 callsubr
          -812 841 133 callsubr
          endchar
        </CharString>
        <CharString name="Itilde">
          777 517 152 callsubr
          49 -1338 -82 callsubr
          -105 callsubr
          -107 callsubr
          -83 callsubr
        </CharString>
        <CharString name="Itildebelow">
          777 566 -36 callsubr
          -105 callsubr
          -107 callsubr
          661 -25 callsubr
          -49 -648 rmoveto
          107 81 81 209 -5 hvcurveto
          -91 hlineto
          -89 -2 -22 -32 -43 hhcurveto
          -28 -25 12 24 -34 hvcurveto
          -29 21 rlineto
          36 -54 -47 22 -59 hhcurveto
          -107 -12 callgsubr
        </CharString>
        <CharString name="J">
          777 566 275 rmoveto
          954 3 callsubr
          -105 callsubr
          127 callsubr
        </CharString>
        <CharString name="Jacute">
          777 355 -75 callsubr
          318 -1273 rmoveto
          954 3 callsubr
          -105 callsubr
          127 callsubr
        </CharString>
        <CharString name="Jcircumflex">
          777 185 -67 callsubr
          -38 callsubr
          486 -1273 rmoveto
          954 3 callsubr
          -105 callsubr
          127 callsubr
        </CharString>
        <CharString name="Jecyrillic">
          777 566 275 rmoveto
          954 3 callsubr
          -105 callsubr
          127 callsubr
        </CharString>
        <CharString name="K">
          1498 566 209 11 callsubr
        </CharString>
        <CharString name="Kaacutecyrillic">
          1498 783 137 callsubr
          -111 -1339 11 callsubr
        </CharString>
        <CharString name="Kacute">
          1498 783 137 callsubr
          -111 -1339 11 callsubr
        </CharString>
        <CharString name="Kacyrillic">
          1498 566 209 11 callsubr
        </CharString>
        <CharString name="Kappagreek">
          1498 566 209 11 callsubr
        </CharString>
        <CharString name="Kcaron">
          1498 1051 -78 callsubr
          -58 callgsubr
          -590 -1646 11 callsubr
        </CharString>
        <CharString name="Kcommaaccent">
          148 callsubr
          238 -687 166 callsubr
          85 callgsubr
        </CharString>
        <CharString name="Kdotbelow">
          148 callsubr
          259 -365 126 callsubr
        </CharString>
        <CharString name="Klinebelow">
          148 callsubr
          -52 -579 2 callsubr
        </CharString>
        <CharString name="L">
          17 callsubr
          endchar
        </CharString>
        <CharString name="Lacute">
          1240 356 -75 callsubr
          934 -1548 rmoveto
          -8 callsubr
          14 callsubr
          endchar
        </CharString>
        <CharString name="Lambdagreek">
          1497 1297 280 rmoveto
          -412 1165 -272 0 -411 -1161 -55 -155 -35 -28 -110 -15 rlinecurve
          -86 458 86 vlineto
          -150 19 -16 40 47 144 rrcurveto
          290 880 294 -892 46 -141 -34 -31 -134 -19 rlinecurve
          -86 692 86 vlineto
          -103 15 -41 24 -54 155 rrcurveto
          endchar
        </CharString>
        <CharString name="Lcaron">
          1240 987 1142 144 callsubr
          283 -1142 rmoveto
          -8 callsubr
          14 callsubr
          endchar
        </CharString>
        <CharString name="Lcircumflexbelow">
          17 callsubr
          372 -466 180 callsubr
        </CharString>
        <CharString name="Lcommaaccent">
          17 callsubr
          572 -478 -6 callsubr
          -88 -70 -31 callsubr
          0 callsubr
          -66 -56 66 callsubr
        </CharString>
        <CharString name="Ldot">
          17 callsubr
          908 690 rmoveto
          93 75 67 93 92 -75 67 -93 -93 -75 -67 -92 -93 75 -67 93 hvcurveto
          endchar
        </CharString>
        <CharString name="Ldotbelow">
          17 callsubr
          592 -156 -85 callsubr
          -84 callsubr
        </CharString>
        <CharString name="Ldotbelowmacron">
          1240 89 -41 callsubr
          1094 -1755 rmoveto
          -8 callsubr
          14 callsubr
          592 -156 -85 callsubr
          -84 callsubr
        </CharString>
        <CharString name="Ljecyrillic">
          2166 14 callgsubr
          393 -1123 hlineto
          -91 -21 -20 -133 -18 vhcurveto
          -86 717 vlineto
          379 209 191 259 276 -226 157 -371 hvcurveto
          -200 332 84 callsubr
          -1224 -86 vlineto
          157 -18 29 -35 -10 callgsubr
          1714 304 rmoveto
          -202 -98 -129 -219 -8 vhcurveto
          -105 -3 0 678 97 -1 rlineto
          204 -2 121 -123 -210 vvcurveto
          endchar
        </CharString>
        <CharString name="Llinebelow">
          17 callsubr
          282 -370 -56 callsubr
        </CharString>
        <CharString name="Lslash">
          1240 58 611 rmoveto
          153 41 rlineto
          -437 vlineto
          -89 -63 callsubr
          1125 vlineto
          -8 callsubr
          rrcurveto
          -168 -6 0 646 332 88 0 107 -332 -88 rlineto
          370 -4 callgsubr
          -470 vlineto
          -153 -41 rlineto
          endchar
        </CharString>
        <CharString name="M">
          1915 616 1444 41 callsubr
        </CharString>
        <CharString name="Macute">
          1915 922 -75 callsubr
          -199 -104 41 callsubr
        </CharString>
        <CharString name="Mdotaccent">
          1915 956 -62 callsubr
          -77 callsubr
          -97 callgsubr
          -340 -118 41 callsubr
        </CharString>
        <CharString name="Mdotbelow">
          1915 616 1444 rmoveto
          -551 -86 hlineto
          123 -17 24 -31 -3 -105 rrcurveto
          -27 -957 -4 -118 -17 -27 -128 -17 rlinecurve
          -86 436 86 vlineto
          -130 19 -18 25 1 120 rrcurveto
          972 vlineto
          429 -1222 192 0 98 333 307 889 24 -1012 2 -88 -21 -20 -126 -16 rlinecurve
          -86 650 86 vlineto
          -134 17 -18 21 -2 91 rrcurveto
          -26 1014 -2 90 23 22 131 17 rlinecurve
          86 vlineto
          -556 1 -323 -1031 rlineto
          -125 -570 -85 callsubr
          -84 callsubr
        </CharString>
        <CharString name="Mugreek">
          1915 616 1444 41 callsubr
        </CharString>
        <CharString name="N">
          1556 -29 callsubr
          -15 callsubr
          endchar
        </CharString>
        <CharString name="Nacute">
          1556 775 -57 callsubr
          -49 callsubr
          -106 -104 -14 callsubr
          -15 callsubr
          endchar
        </CharString>
        <CharString name="Ncaron">
          1556 1043 -78 callsubr
          56 callsubr
          -585 -411 -14 callsubr
          -15 callsubr
          endchar
        </CharString>
        <CharString name="Ncircumflexbelow">
          1556 -29 callsubr
          -15 callsubr
          -725 -793 rmoveto
          221 172 218 -172 102 0 -220 349 79 callsubr
        </CharString>
        <CharString name="Ncommaaccent">
          1556 -29 callsubr
          -15 callsubr
          -525 -805 -6 callsubr
          -89 -69 -31 callsubr
          0 callsubr
          -67 -55 66 callsubr
        </CharString>
        <CharString name="Ndotaccent">
          1556 809 -62 callsubr
          -77 callsubr
          1 callsubr
          -247 -118 -14 callsubr
          -15 callsubr
          endchar
        </CharString>
        <CharString name="Ndotbelow">
          1556 -29 callsubr
          -15 callsubr
          -505 -483 rmoveto
          -79 -63 -57 -78 -79 63 -57 79 -84 callsubr
        </CharString>
        <CharString name="Ngrave">
          1556 872 60 callsubr
          58 -395 -14 callsubr
          -15 callsubr
          endchar
        </CharString>
        <CharString name="Njecyrillic">
          2300 566 209 rmoveto
          517 512 -517 vlineto
          -85 -20 -20 -122 -18 vhcurveto
          -86 707 vlineto
          379 208 180 245 260 -226 147 -371 hvcurveto
          -200 383 84 callsubr
          -662 -86 vlineto
          122 -18 20 -20 -85 vvcurveto
          -403 -512 403 vlineto
          85 20 20 123 18 vhcurveto
          86 -651 82 callsubr
          -107 callsubr
          -5 callsubr
          1290 209 rmoveto
          -187 -99 -119 -218 -8 vhcurveto
          -106 -3 0 626 97 -1 rlineto
          204 -2 122 -112 -194 vvcurveto
          endchar
        </CharString>
        <CharString name="Nlinebelow">
          1556 -29 callsubr
          -15 callsubr
          -815 -697 -56 callsubr
        </CharString>
        <CharString name="Ntilde">
          1556 938 1553 67 callsubr
          -62 callgsubr
          165 callsubr
          -20 rlineto
          -38 56 47 -22 61 hhcurveto
          -376 -109 -14 callsubr
          -15 callsubr
          endchar
        </CharString>
        <CharString name="Nugreek">
          1556 -29 callsubr
          -15 callsubr
          endchar
        </CharString>
        <CharString name="O">
          7 callsubr
          18 callsubr
          -102 callsubr
          -104 callsubr
          -103 callsubr
          -101 callsubr
        </CharString>
        <CharString name="OE">
          2142 90 717 rmoveto
          -428 332 -317 439 vhcurveto
          152 108 28 143 hhcurveto
          803 hlineto
          -81 callsubr
          -61 -275 -62 -46 -261 -10 rrcurveto
          -219 -8 0 590 204 -2 93 -3 27 -38 29 -163 rlinecurve
          76 509 -76 hlineto
          -32 -163 -26 -38 -91 -2 rrcurveto
          -204 -2 0 558 200 -7 244 -10 66 -51 55 -227 rlinecurve
          81 hlineto
          -11 394 rlineto
          -761 hlineto
          -148 -86 28 -156 hhcurveto
          -482 -308 -324 -431 hvcurveto
          379 5 rmoveto
          365 159 269 285 49 43 -7 -15 37 vhcurveto
          -1226 vlineto
          -13 -41 -48 -6 -50 hhcurveto
          -269 -165 266 367 hvcurveto
          endchar
        </CharString>
        <CharString name="Oacute">
          1718 822 -57 callsubr
          -49 callsubr
          -625 -828 -100 callsubr
          -102 callsubr
          -104 callsubr
          -103 callsubr
          -101 callsubr
        </CharString>
        <CharString name="Obreve">
          1718 856 20 callsubr
          -3 16 hvcurveto
          -94 -5 hlineto
          -87 -84 -63 -126 -126 -85 64 86 -81 callgsubr
          -40 callgsubr
          -766 -855 -100 callsubr
          -102 callsubr
          -104 callsubr
          -103 callsubr
          -101 callsubr
        </CharString>
        <CharString name="Ocaron">
          1718 1090 -78 callsubr
          56 callsubr
          -1104 -1135 -100 callsubr
          -102 callsubr
          -104 callsubr
          -103 callsubr
          -101 callsubr
        </CharString>
        <CharString name="Ocircumflex">
          1718 652 -67 callsubr
          -88 callgsubr
          -457 -828 -100 callsubr
          -102 callsubr
          -104 callsubr
          -103 callsubr
          -101 callsubr
        </CharString>
        <CharString name="Ocircumflexacute">
          1718 1177 1848 75 callsubr
          1 -270 -93 callgsubr
          -59 0 -291 -162 rlineto
          -445 -848 -100 callsubr
          -102 callsubr
          -104 callsubr
          -103 callsubr
          -101 callsubr
        </CharString>
        <CharString name="Ocircumflexdotbelow">
          1718 652 -67 callsubr
          -88 callgsubr
          -457 -828 -100 callsubr
          -102 callsubr
          -104 callsubr
          -103 callsubr
          111 callsubr
          382 -893 -85 callsubr
          79 63 90 callsubr
        </CharString>
        <CharString name="Ocircumflexgrave">
          1718 534 1848 74 callsubr
          1 -507 -93 callgsubr
          -59 0 -291 -162 rlineto
          -445 -848 -100 callsubr
          -102 callsubr
          -104 callsubr
          -103 callsubr
          -101 callsubr
        </CharString>
        <CharString name="Ocircumflexhookabove">
          1718 1124 134 callsubr
          158 callsubr
          -59 0 -291 -162 rlineto
          -445 -848 -100 callsubr
          -102 callsubr
          -104 callsubr
          -103 callsubr
          -101 callsubr
        </CharString>
        <CharString name="Ocircumflextilde">
          1718 988 181 callsubr
          -28 -29 129 callsubr
          140 callsubr
          64 callsubr
          -453 -297 -93 callgsubr
          -59 0 -291 -162 rlineto
          -445 -848 -100 callsubr
          -102 callsubr
          -104 callsubr
          -103 callsubr
          -101 callsubr
        </CharString>
        <CharString name="Ocyrillic">
          7 callsubr
          18 callsubr
          -102 callsubr
          -104 callsubr
          -103 callsubr
          -101 callsubr
        </CharString>
        <CharString name="Odblgrave">
          1718 681 135 callsubr
          118 hlineto
          254 301 rmoveto
          -265 -9 hlineto
          192 -292 rlineto
          111 hlineto
          -1017 -827 -100 callsubr
          -102 callsubr
          -104 callsubr
          -103 callsubr
          -101 callsubr
        </CharString>
        <CharString name="Odieresis">
          1718 676 1569 rmoveto
          75 59 55 75 75 -59 55 -75 -51 callsubr
          360 hmoveto
          -28 callsubr
          60 -55 74 hvcurveto
          -946 -849 -100 callsubr
          -102 callsubr
          -104 callsubr
          -103 callsubr
          -101 callsubr
        </CharString>
        <CharString name="Odieresismacron">
          63 callgsubr
          156 -412 rmoveto
          61 48 39 55 54 -48 40 -61 hvcurveto
          65 callsubr
          61 49 39 55 54 -49 40 -61 hvcurveto
          -41 callgsubr
          -932 -832 -100 callsubr
          -102 callsubr
          -104 callsubr
          -103 callsubr
          -101 callsubr
        </CharString>
        <CharString name="Odotaccent">
          1718 856 -62 callsubr
          -77 callsubr
          81 callsubr
          -766 -842 -100 callsubr
          -102 callsubr
          -104 callsubr
          -103 callsubr
          -101 callsubr
        </CharString>
        <CharString name="Odotaccentmacron">
          1718 534 62 callgsubr
          67 52 44 60 59 -52 44 -67 -67 -53 -44 -59 -60 53 -44 67 hvcurveto
          -766 -822 -100 callsubr
          -102 callsubr
          -104 callsubr
          -103 callsubr
          -101 callsubr
        </CharString>
        <CharString name="Odotbelow">
          7 callsubr
          18 callsubr
          -102 callsubr
          -104 callsubr
          -103 callsubr
          111 callsubr
          382 -893 -85 callsubr
          79 63 90 callsubr
        </CharString>
        <CharString name="Ograve">
          1718 919 60 callsubr
          -461 -1119 -100 callsubr
          -102 callsubr
          -104 callsubr
          -103 callsubr
          -101 callsubr
        </CharString>
        <CharString name="Ohookabove">
          1718 890 62 callsubr
          27 47 16 51 hhcurveto
          65 41 -27 -44 -45 -38 -40 48 callgsubr
          -800 -1174 -100 callsubr
          -102 callsubr
          -104 callsubr
          -103 callsubr
          -101 callsubr
        </CharString>
        <CharString name="Ohorn">
          1747 90 720 -100 callsubr
          43 callsubr
        </CharString>
        <CharString name="Ohornacute">
          1747 826 -57 callsubr
          -49 callsubr
          -629 -828 -100 callsubr
          43 callsubr
        </CharString>
        <CharString name="Ohorndotbelow">
          1747 90 720 -100 callsubr
          295 -151 235 -221 119 vhcurveto
          -6 35 37 -4 38 hhcurveto
          172 118 63 130 1 hvcurveto
          103 -79 99 -109 52 vhcurveto
          -84 hlineto
          22 -28 16 -60 -54 vvcurveto
          -126 -1 -76 -95 -152 -99 -105 24 -132 179 callsubr
          111 callsubr
          378 -893 -85 callsubr
          -84 callsubr
        </CharString>
        <CharString name="Ohorngrave">
          1747 923 60 callsubr
          -465 -1119 -100 callsubr
          43 callsubr
        </CharString>
        <CharString name="Ohornhookabove">
          1747 894 62 callsubr
          27 73 callsubr
          48 callgsubr
          -804 -1174 -100 callsubr
          43 callsubr
        </CharString>
        <CharString name="Ohorntilde">
          1747 989 -48 callgsubr
          -29 -24 12 24 -34 hvcurveto
          -31 21 rlineto
          37 -55 -48 80 callsubr
          177 callsubr
          47 -22 61 hhcurveto
          -899 -833 -100 callsubr
          43 callsubr
        </CharString>
        <CharString name="Ohungarumlaut">
          1718 680 1848 rmoveto
          -37 -300 109 0 195 291 rlineto
          9 vlineto
          122 hmoveto
          -136 -300 120 0 309 291 rlineto
          9 vlineto
          -1272 -1128 -100 callsubr
          -102 callsubr
          -104 callsubr
          -103 callsubr
          -101 callsubr
        </CharString>
        <CharString name="Oinvertedbreve">
          1718 856 12 callgsubr
          84 63 127 125 76 callgsubr
          -109 131 -199 vhcurveto
          -766 -1181 -100 callsubr
          -102 callsubr
          -104 callsubr
          -103 callsubr
          -101 callsubr
        </CharString>
        <CharString name="Omacron">
          18 callgsubr
          18 callsubr
          -102 callsubr
          -104 callsubr
          -103 callsubr
          -101 callsubr
        </CharString>
        <CharString name="Omacronacute">
          1718 1177 86 callsubr
          -200 vmoveto
          643 122 -643 hlineto
          -444 -987 -100 callsubr
          -102 callsubr
          -104 callsubr
          -103 callsubr
          -101 callsubr
        </CharString>
        <CharString name="Omacrongrave">
          1718 534 1868 74 callsubr
          -437 vmoveto
          643 122 -643 hlineto
          -444 -987 -100 callsubr
          -102 callsubr
          -104 callsubr
          -103 callsubr
          -101 callsubr
        </CharString>
        <CharString name="Omegagreek">
          1610 82 hmoveto
          632 356 hlineto
          -198 66 -99 176 271 vvcurveto
          311 147 176 234 240 152 67 callgsubr
          631 vlineto
          51 407 rlineto
          -68 hlineto
          -67 -161 -172 -47 -274 -4 rrcurveto
          97 vlineto
          318 41 236 216 318 vvcurveto
          338 -283 266 -463 -467 -279 -269 -349 1 vhcurveto
          -309 238 -217 317 -35 vhcurveto
          -97 vlineto
          -272 4 -171 45 -71 163 rrcurveto
          -69 hlineto
          endchar
        </CharString>
        <CharString name="Omegatonosgreek">
          1809 280 hmoveto
          632 356 hlineto
          -197 66 -99 176 271 vvcurveto
          311 146 176 234 241 151 67 callgsubr
          632 vlineto
          50 407 rlineto
          -68 hlineto
          -67 -161 -171 -47 -275 -4 rrcurveto
          97 vlineto
          318 41 237 216 318 vvcurveto
          338 -284 266 -463 -467 -278 -269 -349 -309 239 -217 316 -35 vhcurveto
          -97 vlineto
          -271 4 -172 45 -71 163 rrcurveto
          -69 hlineto
          -113 649 133 callsubr
          endchar
        </CharString>
        <CharString name="Omicrongreek">
          7 callsubr
          18 callsubr
          -102 callsubr
          -104 callsubr
          -103 callsubr
          -101 callsubr
        </CharString>
        <CharString name="Omicrontonosgreek">
          1849 221 720 -100 callsubr
          -102 callsubr
          -106 336 133 callsubr
          610 -319 rmoveto
          357 -103 callsubr
          -101 callsubr
        </CharString>
        <CharString name="Oogonek">
          7 callsubr
          -437 315 -288 404 -22 vhcurveto
          -92 -67 -66 -95 -97 172 callsubr
          74 105 45 10 42 17 31 hvcurveto
          430 28 278 318 405 vvcurveto
          -102 callsubr
          -104 callsubr
          -103 callsubr
          -101 callsubr
        </CharString>
        <CharString name="Oogonekmacron">
          18 callgsubr
          -437 315 -288 404 -22 vhcurveto
          -92 -67 -66 -95 -97 172 callsubr
          74 105 45 10 42 17 31 hvcurveto
          430 28 278 318 405 vvcurveto
          -102 callsubr
          -104 callsubr
          -103 callsubr
          -101 callsubr
        </CharString>
        <CharString name="Oslash">
          7 callsubr
          185 callsubr
        </CharString>
        <CharString name="Oslashacute">
          1718 822 -57 callsubr
          -49 callsubr
          -625 -828 rmoveto
          185 callsubr
        </CharString>
        <CharString name="Otilde">
          1718 985 -48 callgsubr
          -100 callgsubr
          -55 -48 80 callsubr
          177 callsubr
          47 -22 61 hhcurveto
          -895 -833 -100 callsubr
          -102 callsubr
          -104 callsubr
          -103 callsubr
          -101 callsubr
        </CharString>
        <CharString name="Otildeacute">
          1718 1177 130 callsubr
          454 -230 19 callsubr
          -28 -29 15 callsubr
          64 callsubr
          -898 -835 -100 callsubr
          -102 callsubr
          -104 callsubr
          -103 callsubr
          -101 callsubr
        </CharString>
        <CharString name="Otildedieresis">
          1718 690 1809 rmoveto
          61 48 39 55 55 -48 -52 callgsubr
          61 49 39 55 55 -49 39 -61 hvcurveto
          -13 -28 callgsubr
          -34 -254 19 callsubr
          -28 -29 15 callsubr
          64 callsubr
          -898 -835 -100 callsubr
          -102 callsubr
          -104 callsubr
          -103 callsubr
          -101 callsubr
        </CharString>
        <CharString name="Otildemacron">
          63 callgsubr
          454 -409 19 callsubr
          -28 -29 15 callsubr
          64 callsubr
          -898 -835 -100 callsubr
          -102 callsubr
          -104 callsubr
          -103 callsubr
          -101 callsubr
        </CharString>
        <CharString name="P">
          1448 1369 1014 42 callsubr
        </CharString>
        <CharString name="Pacute">
          1448 674 -75 callsubr
          802 -534 42 callsubr
        </CharString>
        <CharString name="Pdotaccent">
          1448 707 123 callsubr
          662 -548 42 callsubr
        </CharString>
        <CharString name="Pecyrillic">
          1705 1493 215 rmoveto
          1014 vlineto
          89 20 22 134 18 vhcurveto
          86 -1589 82 callsubr
          -107 callsubr
          -5 callsubr
          1129 573 -1129 vlineto
          -85 -20 -20 -123 -18 vhcurveto
          -86 651 86 vlineto
          -134 18 -20 22 89 vvcurveto
          endchar
        </CharString>
        <CharString name="Phigreek">
          1937 73 719 rmoveto
          -318 274 -174 456 -13 vhcurveto
          -3 -85 -27 -26 -135 -17 rrcurveto
          -86 661 86 vlineto
          -135 17 -27 26 -2 85 rrcurveto
          442 13 287 173 321 vvcurveto
          320 -289 173 -440 13 vhcurveto
          2 88 25 26 137 17 rrcurveto
          86 -661 -86 vlineto
          137 -17 26 -26 2 -88 rrcurveto
          -428 -13 -302 -170 -325 vvcurveto
          1432 2 rmoveto
          -240 -146 -144 -225 -20 vhcurveto
          808 vlineto
          240 -19 131 -146 -239 vvcurveto
          -1073 4 rmoveto
          233 141 147 230 20 vhcurveto
          -808 vlineto
          -232 19 -139 144 245 vvcurveto
          endchar
        </CharString>
        <CharString name="Pigreek">
          1676 1465 99 callgsubr
          -1560 82 callsubr
          -107 callsubr
          -5 callsubr
          1129 544 -1129 vlineto
          -85 -19 -20 -123 -18 vhcurveto
          -86 650 86 vlineto
          -133 18 -20 22 89 vvcurveto
          endchar
        </CharString>
        <CharString name="Psigreek">
          1889 1110 230 rmoveto
          261 vlineto
          344 15 175 130 51 341 rrcurveto
          31 211 18 121 32 32 94 5 rlinecurve
          86 vlineto
          5 -32 -65 7 -60 hhcurveto
          -175 -88 -66 -207 -32 hvcurveto
          -33 -217 -36 -229 -61 -104 -163 -22 rlinecurve
          636 vlineto
          86 20 20 123 17 vhcurveto
          86 -617 -86 vlineto
          123 -17 20 -20 -86 vvcurveto
          -636 vlineto
          -163 22 -61 104 -36 229 -33 217 rcurveline
          207 -31 -89 66 -175 hhcurveto
          -59 -66 -7 -5 -33 hvcurveto
          -86 vlineto
          95 -5 32 -32 18 -121 rrcurveto
          31 -211 51 -341 175 -130 344 -15 rlinecurve
          -261 vlineto
          -98 -22 -28 -142 -18 vhcurveto
          -86 660 -72 callsubr
          endchar
        </CharString>
        <CharString name="Q">
          7 callsubr
          -416 286 -281 375 -45 vhcurveto
          147 -139 rlineto
          -180 189 105 -42 149 hhcurveto
          112 112 29 47 88 hvcurveto
          78 vlineto
          -121 -12 -106 45 -186 152 -82 68 rcurveline
          293 108 178 269 324 vvcurveto
          455 -342 292 -426 -466 -305 -329 -423 vhcurveto
          -104 callsubr
          108 261 260 240 147 -278 -369 -1 vhcurveto
          -358 -108 -261 -259 -241 -146 279 369 vhcurveto
          endchar
        </CharString>
        <CharString name="R">
          1465 1347 1051 147 callsubr
          endchar
        </CharString>
        <CharString name="Racute">
          1465 670 -57 callsubr
          -338 vlineto
          -133 -300 rlineto
          783 -497 147 callsubr
          endchar
        </CharString>
        <CharString name="Rcaron">
          1465 938 -78 callsubr
          -4 callsubr
          6 callsubr
          304 -804 147 callsubr
          endchar
        </CharString>
        <CharString name="Rcommaaccent">
          -60 callgsubr
          -220 -1507 -6 callsubr
          -89 -69 -31 callsubr
          163 callsubr
        </CharString>
        <CharString name="Rdblgrave">
          1465 529 135 callsubr
          -34 callgsubr
          392 -496 147 callsubr
          endchar
        </CharString>
        <CharString name="Rdotaccent">
          1465 704 123 callsubr
          643 -511 147 callsubr
          endchar
        </CharString>
        <CharString name="Rdotbelow">
          -60 callgsubr
          -200 -1185 -85 callsubr
          -84 callsubr
        </CharString>
        <CharString name="Rdotbelowmacron">
          1465 404 -41 callsubr
          943 -704 147 callsubr
          -200 -1185 -85 callsubr
          -84 callsubr
        </CharString>
        <CharString name="Rhogreek">
          1448 1369 1014 42 callsubr
        </CharString>
        <CharString name="Rinvertedbreve">
          1465 704 -18 callgsubr
          93 vlineto
          3 16 2 143 callsubr
          643 -850 147 callsubr
          endchar
        </CharString>
        <CharString name="Rlinebelow">
          -60 callgsubr
          -510 -1399 -56 callsubr
        </CharString>
        <CharString name="S">
          1285 607 -28 92 callsubr
          endchar
        </CharString>
        <CharString name="Sacute">
          1285 643 -57 callsubr
          -49 callsubr
          71 -1576 92 callsubr
          endchar
        </CharString>
        <CharString name="Sacutedotaccent">
          1285 677 1769 rmoveto
          67 52 44 59 61 -52 43 -67 -66 -54 -43 -61 -59 53 -44 67 hvcurveto
          321 -150 rmoveto
          153 vlineto
          -642 -165 rlineto
          -71 vlineto
          251 -1564 92 callsubr
          endchar
        </CharString>
        <CharString name="Scaron">
          1285 911 -78 callsubr
          56 callsubr
          -408 -1883 92 callsubr
          endchar
        </CharString>
        <CharString name="Scarondotaccent">
          1285 677 1790 rmoveto
          67 52 44 60 60 -52 44 -67 -66 -54 -44 -60 -60 53 -1 callgsubr
          -400 -1735 92 callsubr
          endchar
        </CharString>
        <CharString name="Scedilla">
          1285 595 -478 rmoveto
          -12 callsubr
          60 70 rlineto
          298 20 229 161 271 vvcurveto
          215 -126 147 -273 87 vhcurveto
          -124 40 rlineto
          -161 52 -82 66 116 vvcurveto
          120 88 86 169 180 130 -117 -214 45 vhcurveto
          81 hlineto
          -9 346 rlineto
          59 -84 -158 43 -191 hhcurveto
          -361 -227 -173 -264 -211 139 -145 258 -81 hvcurveto
          125 -40 rlineto
          169 -54 75 -76 -121 vvcurveto
          -128 -102 -90 -162 -197 -168 123 237 -52 vhcurveto
          -81 hlineto
          12 -365 rlineto
          93 -59 169 -46 190 -7 -103 -123 rcurveline
          59 callsubr
          -51 -7 callsubr
          endchar
        </CharString>
        <CharString name="Schwa">
          1538 710 -28 rmoveto
          451 287 295 450 494 -322 261 -453 -223 -188 -40 -61 -93 hvcurveto
          -10 -374 rlineto
          81 hlineto
          227 56 134 131 215 hhcurveto
          270 150 -233 -415 hvcurveto
          -1 -992 vlineto
          -5 -31 -5 -42 -41 vvcurveto
          -367 224 -253 423 vhcurveto
          -304 585 rmoveto
          15 0 16 1 15 vhcurveto
          655 2 -19 -326 -116 -189 -212 -1 rlinecurve
          -227 -82 211 257 hvcurveto
          endchar
        </CharString>
        <CharString name="Scircumflex">
          1285 473 -67 callsubr
          -222 0 -213 -300 rlineto
          238 -1576 92 callsubr
          endchar
        </CharString>
        <CharString name="Scommaaccent">
          1285 607 -28 92 callsubr
          1 -450 -6 callsubr
          -89 -69 -31 callsubr
          163 callsubr
        </CharString>
        <CharString name="Sdotaccent">
          1285 677 -62 callsubr
          -77 callsubr
          81 callsubr
          -70 -1590 92 callsubr
          endchar
        </CharString>
        <CharString name="Sdotbelow">
          1285 607 -28 92 callsubr
          21 -128 -85 callsubr
          -84 callsubr
        </CharString>
        <CharString name="Sdotbelowdotaccent">
          1285 677 -62 callsubr
          -77 callsubr
          81 callsubr
          -70 -1590 92 callsubr
          21 -128 -85 callsubr
          -84 callsubr
        </CharString>
        <CharString name="Shacyrillic">
          2446 2235 -36 callsubr
          -651 -86 vlineto
          123 -18 20 -20 -84 vvcurveto
          -1130 -480 -104 callgsubr
          -640 -86 vlineto
          123 -18 19 -20 -84 vvcurveto
          -1130 -479 -104 callgsubr
          -651 82 callsubr
          -107 callsubr
          2330 -25 callsubr
          endchar
        </CharString>
        <CharString name="Shchacyrillic">
          2474 2426 106 rmoveto
          -191 1123 hlineto
          89 19 -70 callgsubr
          -84 vvcurveto
          -1130 -480 -104 callgsubr
          -640 -86 vlineto
          122 -18 20 -20 -84 vvcurveto
          -1130 -479 -104 callgsubr
          -651 82 callsubr
          -107 callsubr
          1959 vlineto
          202 44 -38 -282 84 hvcurveto
          87 hlineto
          endchar
        </CharString>
        <CharString name="Sigmagreek">
          93 callgsubr
          481 -675 -476 -509 rlineto
          -179 1163 vlineto
          13 515 rlineto
          -92 hlineto
          -233 -54 -67 -39 -273 hhcurveto
          -485 hlineto
          559 544 0 28 -368 531 279 -9 264 -9 59 -59 55 -216 rlinecurve
          81 hlineto
          endchar
        </CharString>
        <CharString name="Softsigncyrillic">
          1434 1363 176 callsubr
          -673 82 callsubr
          -107 callsubr
          716 219 callsubr
          -8 callgsubr
        </CharString>
        <CharString name="T">
          1404 -42 callsubr
          -59 callsubr
          -53 callsubr
          70 callsubr
        </CharString>
        <CharString name="Taugreek">
          1404 -42 callsubr
          -59 callsubr
          -53 callsubr
          70 callsubr
        </CharString>
        <CharString name="Tbar">
          1404 237 690 rmoveto
          287 -461 hlineto
          -98 -21 -28 -143 -18 vhcurveto
          -85 684 85 vlineto
          -143 18 -22 28 98 vvcurveto
          461 288 100 -288 555 221 callsubr
          -11 395 -1292 0 -11 -59 callsubr
          -555 -287 vlineto
          endchar
        </CharString>
        <CharString name="Tcaron">
          1404 935 -78 callsubr
          106 callsubr
          308 -411 rmoveto
          -1292 hlineto
          -11 -59 callsubr
          -53 callsubr
          70 callsubr
        </CharString>
        <CharString name="Tcedilla">
          1404 669 -478 rmoveto
          142 128 66 125 125 -111 66 -132 hvcurveto
          -4 -4 0 -4 hhcurveto
          81 96 rlineto
          279 86 hlineto
          -143 18 -22 28 98 vvcurveto
          37 callsubr
          -11 395 -1292 0 -11 -59 callsubr
          -53 callsubr
          299 vlineto
          -125 -151 -30 callsubr
          -26 -48 -48 -46 -26 -63 -52 -51 -7 callsubr
          endchar
        </CharString>
        <CharString name="Tcircumflexbelow">
          1404 -42 callsubr
          -59 callsubr
          -53 callsubr
          684 -72 callsubr
          37 callsubr
          -877 -1515 34 callsubr
          -202 0 -220 -349 rlineto
          endchar
        </CharString>
        <CharString name="Tcommaaccent">
          1404 -42 callsubr
          -59 callsubr
          -53 callsubr
          684 -72 callsubr
          37 callsubr
          -677 -1527 28 callsubr
          -95 70 -132 -89 -70 -32 -38 -29 hvcurveto
          -74 vlineto
          8 18 33 7 33 hhcurveto
          59 -1 45 -24 -44 vvcurveto
          -45 -43 -25 -67 84 callgsubr
        </CharString>
        <CharString name="Tdotaccent">
          1404 702 -62 callsubr
          -77 callsubr
          -80 -63 -57 -78 -78 63 -58 80 hvcurveto
          646 -118 rmoveto
          -1292 hlineto
          -11 -59 callsubr
          -53 callsubr
          70 callsubr
        </CharString>
        <CharString name="Tdotbelow">
          1404 -42 callsubr
          -59 callsubr
          -53 callsubr
          684 -72 callsubr
          37 callsubr
          -657 -1205 -85 callsubr
          79 63 90 callsubr
        </CharString>
        <CharString name="Tecyrillic">
          1404 -42 callsubr
          -59 callsubr
          -53 callsubr
          70 callsubr
        </CharString>
        <CharString name="Thetagreek">
          1729 863 -28 rmoveto
          470 307 329 423 455 -346 293 -428 -470 -307 -329 -423 -455 345 -293 429 hvcurveto
          10 106 rmoveto
          -262 -155 274 385 374 118 255 282 263 155 -273 -386 -375 -120 -254 -281 hvcurveto
          -280 391 rmoveto
          67 hlineto
          142 23 38 45 104 hhcurveto
          77 hlineto
          104 38 -45 -142 23 hvcurveto
          67 492 -67 hlineto
          -141 -23 -38 -45 -104 hhcurveto
          -77 hlineto
          -104 -38 45 141 -23 hvcurveto
          -67 hlineto
          endchar
        </CharString>
        <CharString name="Thorn">
          1426 1363 744 rmoveto
          273 -242 121 -389 vhcurveto
          -166 77 84 callsubr
          -673 -86 vlineto
          134 -18 19 -22 -88 vvcurveto
          -1016 vlineto
          -88 -19 -22 -134 -18 vhcurveto
          -86 -19 callsubr
          95 166 vlineto
          372 1 259 145 273 vvcurveto
          -374 -19 rmoveto
          -189 -126 -102 -221 -8 vhcurveto
          -76 -2 0 616 76 -3 rlineto
          228 -8 119 -119 -185 vvcurveto
          endchar
        </CharString>
        <CharString name="Tlinebelow">
          1404 -42 callsubr
          -59 callsubr
          -53 callsubr
          684 -72 callsubr
          37 callsubr
          -968 -1419 2 callsubr
        </CharString>
        <CharString name="Tsecyrillic">
          1733 1685 106 rmoveto
          -192 1123 hlineto
          89 20 -70 callgsubr
          -85 vvcurveto
          -1129 -573 1129 vlineto
          85 20 20 123 18 vhcurveto
          86 -651 82 callsubr
          -107 callsubr
          1218 vlineto
          202 45 -38 -282 83 hvcurveto
          87 hlineto
          endchar
        </CharString>
        <CharString name="Tshecyrillic">
          1878 -42 callsubr
          -21 callgsubr
          426 vlineto
          33 54 81 18 92 hhcurveto
          175 93 -98 -204 hvcurveto
          -392 498 86 vlineto
          -124 18 -20 20 85 vvcurveto
          188 vlineto
          316 -205 123 -282 -1 vhcurveto
          -158 -129 -36 -48 -75 hvcurveto
          592 88 callgsubr
        </CharString>
        <CharString name="U">
          1568 179 1235 -87 callsubr
        </CharString>
        <CharString name="Uacute">
          1568 821 137 callsubr
          -536 -313 -87 callsubr
        </CharString>
        <CharString name="Ubreve">
          1568 855 209 callsubr
          109 -131 199 vhcurveto
          -676 -340 -87 callsubr
        </CharString>
        <CharString name="Ubrevecyrillic">
          1481 827 1570 rmoveto
          -45 callgsubr
          -72 -52 -77 callgsubr
          83 callgsubr
          -590 -1433 190 callsubr
        </CharString>
        <CharString name="Ucaron">
          1568 1089 -78 callsubr
          -4 callsubr
          6 callsubr
          -1015 -620 -87 callsubr
        </CharString>
        <CharString name="Ucircumflex">
          1568 652 -67 callsubr
          -38 callsubr
          -368 -313 -87 callsubr
        </CharString>
        <CharString name="Ucircumflexbelow">
          98 callsubr
          432 -1701 34 callsubr
          78 callsubr
        </CharString>
        <CharString name="Ucyrillic">
          1481 237 137 190 callsubr
        </CharString>
        <CharString name="Udblgrave">
          1568 680 135 callsubr
          118 hlineto
          255 128 callsubr
          -927 -312 -87 callsubr
        </CharString>
        <CharString name="Udieresis">
          1568 675 1569 rmoveto
          -28 callsubr
          59 -55 75 hvcurveto
          361 hmoveto
          89 callsubr
          -51 callsubr
          -857 -334 -87 callsubr
        </CharString>
        <CharString name="Udieresisacute">
          1568 1177 130 callsubr
          155 -233 -27 callsubr
          -13 hlineto
          -62 -48 -40 -54 -55 48 -39 62 hvcurveto
          358 hmoveto
          -55 callsubr
          -842 -317 -87 callsubr
        </CharString>
        <CharString name="Udieresisbelow">
          98 callsubr
          426 -1662 rmoveto
          82 65 57 79 78 -65 57 -82 -81 -66 -57 -78 -79 66 -57 81 hvcurveto
          451 hmoveto
          81 66 57 79 78 -66 57 -81 -81 -66 -57 -78 -79 65 -57 82 hvcurveto
          endchar
        </CharString>
        <CharString name="Udieresiscaron">
          1568 1176 61 callgsubr
          59 0 291 156 rlineto
          -487 -394 -27 callsubr
          -13 hlineto
          -62 -48 -40 -54 -55 48 -39 62 hvcurveto
          358 hmoveto
          -55 callsubr
          -842 -317 -87 callsubr
        </CharString>
        <CharString name="Udieresisgrave">
          1568 534 89 callgsubr
          155 -470 -27 callsubr
          -13 hlineto
          -62 -48 -40 -54 -55 48 -39 62 hvcurveto
          358 hmoveto
          -55 callsubr
          -842 -317 -87 callsubr
        </CharString>
        <CharString name="Udieresismacron">
          1568 533 1842 -80 callgsubr
          156 -412 -27 callsubr
          -13 hlineto
          -62 -48 -40 -54 -55 48 -39 62 hvcurveto
          358 hmoveto
          -55 callsubr
          -842 -317 -87 callsubr
        </CharString>
        <CharString name="Udotbelow">
          98 callsubr
          652 -1391 126 callsubr
        </CharString>
        <CharString name="Ugrave">
          1568 918 1548 rmoveto
          106 hlineto
          -122 300 rlineto
          -351 -9 hlineto
          -372 -604 -87 callsubr
        </CharString>
        <CharString name="Uhookabove">
          1568 890 1894 rmoveto
          -109 -81 -48 -50 -39 hvcurveto
          -64 vlineto
          20 26 73 callsubr
          -90 -56 hvcurveto
          89 hlineto
          170 61 64 59 76 vvcurveto
          84 -79 58 -117 vhcurveto
          -711 -659 -87 callsubr
        </CharString>
        <CharString name="Uhorn">
          1711 182 542 44 callsubr
        </CharString>
        <CharString name="Uhornacute">
          1711 836 -75 callsubr
          -547 -1006 44 callsubr
        </CharString>
        <CharString name="Uhorndotbelow">
          1711 182 542 rmoveto
          -384 278 -186 331 361 231 224 357 3 vhcurveto
          7 829 rlineto
          -3 18 17 -1 17 hhcurveto
          159 95 68 117 102 -74 95 -105 51 hvcurveto
          -82 callgsubr
          203 callsubr
          640 -1381 rmoveto
          -79 -63 -57 -78 -79 63 -57 79 -84 callsubr
        </CharString>
        <CharString name="Uhorngrave">
          1711 933 1548 rmoveto
          106 hlineto
          -123 300 rlineto
          -351 -9 hlineto
          -383 -1297 44 callsubr
        </CharString>
        <CharString name="Uhornhookabove">
          1711 904 62 callsubr
          27 47 16 51 hhcurveto
          65 40 -27 -44 -45 -37 -40 48 callgsubr
          -722 -1352 44 callsubr
        </CharString>
        <CharString name="Uhorntilde">
          1711 999 -48 callgsubr
          -100 callgsubr
          -55 -48 80 callsubr
          177 callsubr
          46 -22 62 hhcurveto
          -817 -1011 44 callsubr
        </CharString>
        <CharString name="Uhungarumlaut">
          1568 680 1848 rmoveto
          -38 -300 110 0 194 291 rlineto
          9 vlineto
          122 hmoveto
          -136 -300 121 0 308 291 rlineto
          9 vlineto
          -1182 -613 -87 callsubr
        </CharString>
        <CharString name="Uinvertedbreve">
          1568 855 -18 callgsubr
          93 vlineto
          3 16 2 143 callsubr
          -676 -666 -87 callsubr
        </CharString>
        <CharString name="Umacron">
          1568 555 -41 callsubr
          -376 -520 -87 callsubr
        </CharString>
        <CharString name="Umacrondieresis">
          1568 689 1809 rmoveto
          61 49 39 55 55 -49 39 -61 hvcurveto
          -13 hlineto
          -62 -48 -39 -55 -55 48 -39 62 hvcurveto
          358 hmoveto
          55 callgsubr
          -378 -472 -87 callsubr
        </CharString>
        <CharString name="Uogonek">
          1568 842 -487 rmoveto
          100 87 43 64 37 hvcurveto
          83 vlineto
          -15 -16 -27 -11 -32 hhcurveto
          -70 -61 74 105 47 12 44 18 31 hvcurveto
          310 39 180 217 4 322 rrcurveto
          7 639 2 118 18 27 126 18 rlinecurve
          86 -439 -86 vlineto
          137 -19 19 -27 1 155 callsubr
          -690 vlineto
          -380 270 -188 324 -5 vhcurveto
          -91 -67 -64 -95 -96 vvcurveto
          -122 96 -79 128 vhcurveto
          endchar
        </CharString>
        <CharString name="Upsilondieresisgreek">
          1429 622 77 callsubr
          -51 callsubr
          33 callsubr
          -765 -401 -60 callsubr
        </CharString>
        <CharString name="Upsilongreek">
          1429 218 1168 -60 callsubr
        </CharString>
        <CharString name="Upsilontonosgreek">
          1829 618 1168 rmoveto
          321 -548 rlineto
          -390 -24 callsubr
          685 -72 callsubr
          407 vlineto
          308 522 92 154 31 28 110 17 rlinecurve
          86 -446 -86 vlineto
          143 -17 11 -36 -79 -148 rrcurveto
          -224 -415 -238 424 -77 139 12 36 139 17 rlinecurve
          86 -683 -86 vlineto
          106 -17 32 -29 87 -144 rrcurveto
          -503 -112 133 callsubr
          endchar
        </CharString>
        <CharString name="Uring">
          1568 579 1745 rmoveto
          -116 118 -77 158 158 119 77 116 116 -118 79 -159 -158 -3 callgsubr
          -586 -510 -87 callsubr
        </CharString>
        <CharString name="Utilde">
          1568 984 1553 rmoveto
          110 84 83 217 -4 hvcurveto
          -98 hlineto
          -90 -2 -23 -32 -42 hhcurveto
          -100 callgsubr
          -56 -47 80 callsubr
          4 hvcurveto
          98 hlineto
          90 2 23 33 43 hhcurveto
          29 23 -13 -24 36 hvcurveto
          30 -20 rlineto
          -38 55 47 -22 61 hhcurveto
          -805 -318 -87 callsubr
        </CharString>
        <CharString name="Utildeacute">
          1568 1177 130 callsubr
          453 -230 rmoveto
          116 75 67 124 -1 hvcurveto
          -99 hlineto
          -45 -27 -20 -46 -28 -30 8 11 -39 vhcurveto
          -36 12 rlineto
          14 -49 -47 11 -52 hhcurveto
          -115 -76 -67 -124 1 hvcurveto
          99 hlineto
          45 27 20 47 27 30 -7 -12 39 vhcurveto
          37 -11 rlineto
          -15 48 47 -11 52 hhcurveto
          -808 -320 -87 callsubr
        </CharString>
        <CharString name="Utildebelow">
          98 callsubr
          777 -1668 rmoveto
          107 81 81 209 -4 hvcurveto
          -92 hlineto
          -89 -2 -22 -32 -43 hhcurveto
          -28 -24 12 24 -35 hvcurveto
          -29 21 rlineto
          36 -54 -46 22 -60 hhcurveto
          -107 -81 -81 -209 4 hvcurveto
          92 hlineto
          88 2 22 33 43 hhcurveto
          28 24 -13 -23 34 hvcurveto
          30 -21 rlineto
          -37 54 47 -21 59 hhcurveto
          endchar
        </CharString>
        <CharString name="V">
          92 callgsubr
          endchar
        </CharString>
        <CharString name="Vdotbelow">
          92 callgsubr
          558 -1309 -85 callsubr
          -84 callsubr
        </CharString>
        <CharString name="Vecyrillic">
          1485 1406 424 99 callsubr
        </CharString>
        <CharString name="Vtilde">
          1490 951 152 callsubr
          -756 -400 rmoveto
          201 callsubr
          endchar
        </CharString>
        <CharString name="W">
          2280 189 1153 10 callsubr
        </CharString>
        <CharString name="Wacute">
          2280 1205 -75 callsubr
          -909 -395 10 callsubr
        </CharString>
        <CharString name="Wcircumflex">
          2280 1035 -67 callsubr
          -38 callsubr
          -741 -395 10 callsubr
        </CharString>
        <CharString name="Wdieresis">
          2280 1058 1569 rmoveto
          -28 callsubr
          60 -55 -33 callgsubr
          -74 -61 -55 -75 -75 60 -55 75 hvcurveto
          -1230 -416 10 callsubr
        </CharString>
        <CharString name="Wdotaccent">
          2280 1238 123 callsubr
          -1049 -409 10 callsubr
        </CharString>
        <CharString name="Wdotbelow">
          2280 189 1153 rmoveto
          363 -1154 263 0 328 1060 315 -1060 270 0 357 1138 55 176 32 29 116 16 rlinecurve
          86 -456 -86 vlineto
          144 -20 13 -32 -44 -161 rrcurveto
          -234 -842 -240 852 -44 155 11 28 141 20 rlinecurve
          86 -653 -86 vlineto
          140 -20 13 -27 -42 -153 rrcurveto
          -236 -855 -241 848 -43 155 15 32 144 20 rlinecurve
          86 -683 -86 vlineto
          111 -16 35 -28 50 -161 rrcurveto
          953 -1309 126 callsubr
        </CharString>
        <CharString name="Wgrave">
          2280 1301 -71 callgsubr
          -745 -686 10 callsubr
        </CharString>
        <CharString name="X">
          1460 285 308 40 callsubr
        </CharString>
        <CharString name="Xdieresis">
          1460 642 77 callsubr
          -51 callsubr
          33 callsubr
          -718 -1261 40 callsubr
        </CharString>
        <CharString name="Xdotaccent">
          1460 822 -89 callgsubr
          -537 -1254 40 callsubr
        </CharString>
        <CharString name="Xigreek">
          1378 1288 1444 rmoveto
          -1198 hlineto
          -18 -456 rlineto
          81 hlineto
          189 47 68 30 239 hhcurveto
          364 hlineto
          240 67 -30 -189 47 hvcurveto
          81 hlineto
          -693 -315 rmoveto
          152 hlineto
          141 43 -42 -146 28 hvcurveto
          76 482 -76 hlineto
          -146 -28 -43 -41 -141 hhcurveto
          -152 16 callgsubr
          688 -673 rmoveto
          103 callgsubr
          -328 222 callsubr
          rlineto
          endchar
        </CharString>
        <CharString name="Xigreek.1">
          1380 614 673 rmoveto
          34 -432 -122 222 callsubr
          1224 0 103 callgsubr
          -122 432 34 hlineto
          141 43 -42 -146 27 hvcurveto
          76 482 -76 hlineto
          -146 -27 -43 -41 -141 hhcurveto
          -34 427 140 hlineto
          239 68 -30 -189 47 hvcurveto
          81 hlineto
          -18 456 -1198 0 -19 -456 rlineto
          81 hlineto
          189 48 67 30 240 hhcurveto
          140 -427 -34 16 callgsubr
          endchar
        </CharString>
        <CharString name="Y">
          1429 218 1168 -60 callsubr
        </CharString>
        <CharString name="Yacute">
          1429 768 -57 callsubr
          -49 callsubr
          -443 -380 -60 callsubr
        </CharString>
        <CharString name="Ycircumflex">
          1429 598 167 callsubr
          -276 -380 -60 callsubr
        </CharString>
        <CharString name="Ydieresis">
          1429 622 77 callsubr
          -51 callsubr
          33 callsubr
          -765 -401 -60 callsubr
        </CharString>
        <CharString name="Ydotaccent">
          1429 802 -89 callgsubr
          -584 -394 -60 callsubr
        </CharString>
        <CharString name="Ydotbelow">
          1429 218 1168 rmoveto
          322 -548 rlineto
          -390 -24 callsubr
          684 86 vlineto
          200 callsubr
          510 -1324 184 callsubr
        </CharString>
        <CharString name="Yericyrillic">
          2121 1363 176 callsubr
          -673 82 callsubr
          -107 callsubr
          716 vlineto
          380 209 191 259 hvcurveto
          547 -235 -82 callsubr
          -105 callsubr
          -107 callsubr
          661 -25 callsubr
          -922 228 rmoveto
          -8 callgsubr
        </CharString>
        <CharString name="Ygrave">
          1429 865 60 callsubr
          -279 -671 -60 callsubr
        </CharString>
        <CharString name="Yhookabove">
          1429 837 1894 rmoveto
          -110 -80 -48 -50 -40 hvcurveto
          -64 vlineto
          20 27 73 callsubr
          -90 -56 hvcurveto
          89 hlineto
          170 61 64 59 76 vvcurveto
          84 -80 58 -116 vhcurveto
          -619 -726 -60 callsubr
        </CharString>
        <CharString name="Yicyrillic">
          777 209 1569 rmoveto
          138 callsubr
          360 hmoveto
          -28 callsubr
          59 -55 75 hvcurveto
          -3 -1354 -82 callsubr
          -105 callsubr
          -107 callsubr
          -83 callsubr
        </CharString>
        <CharString name="Ymacron">
          1429 502 -41 callsubr
          -284 -587 -60 callsubr
        </CharString>
        <CharString name="Ytilde">
          1429 931 1553 67 callsubr
          -62 callgsubr
          -47 22 -61 hhcurveto
          -111 -83 -83 -217 4 hvcurveto
          98 hlineto
          90 2 23 33 43 hhcurveto
          28 24 -13 -24 35 hvcurveto
          30 -20 rlineto
          -38 56 47 -22 61 hhcurveto
          -713 -385 -60 callsubr
        </CharString>
        <CharString name="Z">
          1324 1236 hmoveto
          -81 callsubr
          213 callsubr
          endchar
        </CharString>
        <CharString name="Zacute">
          1324 645 -75 callsubr
          698 -1548 rmoveto
          -81 callsubr
          213 callsubr
          endchar
        </CharString>
        <CharString name="Zcaron">
          1324 912 -78 callsubr
          106 callsubr
          219 -1855 rmoveto
          -81 callsubr
          213 callsubr
          endchar
        </CharString>
        <CharString name="Zcircumflex">
          1324 475 -67 callsubr
          -88 callgsubr
          866 -1548 rmoveto
          -81 callsubr
          213 callsubr
          endchar
        </CharString>
        <CharString name="Zdotaccent">
          1324 679 -62 callsubr
          -77 callsubr
          81 callsubr
          557 -1562 rmoveto
          -81 callsubr
          213 callsubr
          endchar
        </CharString>
        <CharString name="Zdotbelow">
          49 callgsubr
          596 -162 -85 callsubr
          -84 callsubr
        </CharString>
        <CharString name="Zecyrillic">
          1312 1233 421 rmoveto
          226 -192 114 -252 20 vhcurveto
          219 33 177 113 191 vvcurveto
          227 -209 127 -380 -193 -173 -49 -57 -89 vhcurveto
          -10 -346 rlineto
          81 hlineto
          219 50 116 116 183 hhcurveto
          169 87 -105 -166 -178 -110 -105 -193 hvcurveto
          -125 -103 125 hlineto
          222 122 -105 -192 -202 -124 -110 -189 -173 -132 105 237 -54 hvcurveto
          -81 hlineto
          11 -346 rlineto
          -62 99 181 -51 183 hhcurveto
          361 293 155 294 hvcurveto
          endchar
        </CharString>
        <CharString name="Zetagreek">
          1324 1236 hmoveto
          -81 callsubr
          213 callsubr
          endchar
        </CharString>
        <CharString name="Zhecyrillic">
          2148 404 hmoveto
          391 686 rlineto
          106 -477 hlineto
          -87 -19 -19 -125 -17 vhcurveto
          -86 618 86 vlineto
          -124 17 -19 19 87 vvcurveto
          477 106 vlineto
          391 -686 rlineto
          425 81 hlineto
          -72 25 -40 42 -128 221 rrcurveto
          -328 571 178 191 156 163 61 41 130 23 rlinecurve
          86 -505 -86 vlineto
          140 -16 14 -40 -99 -119 rrcurveto
          -325 -392 -104 -1 rlineto
          445 vlineto
          87 19 19 124 17 vhcurveto
          86 -618 -86 vlineto
          125 -17 19 -19 -87 vvcurveto
          -445 vlineto
          -104 1 -325 392 -99 119 15 40 139 16 rlinecurve
          86 -505 -86 vlineto
          130 -23 54 -39 155 -164 rrcurveto
          192 -208 -318 -555 -129 -221 -40 -42 -72 -25 rlinecurve
          -81 vlineto
          endchar
        </CharString>
        <CharString name="Zlinebelow">
          49 callgsubr
          286 -376 -56 callsubr
        </CharString>
        <CharString name="a">
          1205 375 -22 -98 callsubr
        </CharString>
        <CharString name="a.dnum">
          766 238 -13 -29 callgsubr
          35 callgsubr
          18 43 hvcurveto
          226 38 callgsubr
          40 52 25 -10 21 -50 callgsubr
          47 callgsubr
          32 88 19 183 callsubr
        </CharString>
        <CharString name="a.numr">
          761 238 645 -29 callgsubr
          -35 75 hhcurveto
          56 47 15 19 27 hvcurveto
          56 vlineto
          -1 -6 -9 -1 -10 hhcurveto
          -30 -25 18 43 hvcurveto
          225 vlineto
          147 -104 64 -178 -175 -108 -69 -82 -51 40 -35 57 56 42 40 52 24 -10 22 -50 callgsubr
          -90 hvcurveto
          -35 vlineto
          -122 -25 rlineto
          -187 -38 -64 -63 109 callgsubr
          32 88 19 183 callsubr
        </CharString>
        <CharString name="a.sups">
          766 238 817 -29 callgsubr
          35 callgsubr
          19 43 hvcurveto
          225 38 callgsubr
          41 51 25 -10 21 -50 callgsubr
          47 callgsubr
          33 88 18 183 callsubr
        </CharString>
        <CharString name="aacute">
          1205 512 -33 callsubr
          -29 -1169 -98 callsubr
        </CharString>
        <CharString name="abreve">
          1205 559 1163 rmoveto
          220 118 149 163 22 -2 22 -3 19 hvcurveto
          -99 -44 callsubr
          -11 callsubr
          -184 -1185 -98 callsubr
        </CharString>
        <CharString name="abreveacute">
          1205 873 -10 callsubr
          313 -311 -2 callsubr
          -96 hlineto
          -65 -5 -89 -43 -124 hhcurveto
          -122 -90 43 65 -5 hvcurveto
          -96 hlineto
          -169 -8 129 -104 192 hhcurveto
          -184 -1140 -98 callsubr
        </CharString>
        <CharString name="abrevecyrillic">
          1205 560 -27 callgsubr
          -43 hvcurveto
          52 13 callgsubr
          -185 -1178 -98 callsubr
        </CharString>
        <CharString name="abrevedotbelow">
          1205 559 1163 rmoveto
          220 118 149 163 22 -2 22 -3 19 hvcurveto
          -99 -44 callsubr
          -11 callsubr
          -184 -1185 39 callsubr
          219 -718 -74 callsubr
        </CharString>
        <CharString name="abrevegrave">
          1205 246 63 callsubr
          313 -590 -2 callsubr
          -96 hlineto
          -65 -5 -89 -43 -124 hhcurveto
          -122 -90 43 65 -5 hvcurveto
          -96 hlineto
          -169 -8 129 -104 192 hhcurveto
          -184 -1140 -98 callsubr
        </CharString>
        <CharString name="abrevehookabove">
          1205 550 136 callsubr
          28 51 170 callsubr
          -92 56 -117 vhcurveto
          9 -574 -2 callsubr
          -96 hlineto
          -65 -5 -89 -43 -124 hhcurveto
          -122 -90 43 65 -5 hvcurveto
          -96 hlineto
          -169 -8 129 -104 192 hhcurveto
          -184 -1140 -98 callsubr
        </CharString>
        <CharString name="abrevetilde">
          1205 688 55 callsubr
          215 callsubr
          -129 -337 -2 callsubr
          -96 hlineto
          -65 -5 -89 -43 -124 hhcurveto
          -122 -90 43 65 -5 hvcurveto
          -96 hlineto
          -169 -8 129 -104 192 hhcurveto
          -184 -1140 -98 callsubr
        </CharString>
        <CharString name="acaron">
          1205 796 -65 callsubr
          -235 192 -109 0 236 -388 217 0 236 388 rlineto
          -529 -1566 -98 callsubr
        </CharString>
        <CharString name="acircumflex">
          1205 323 -23 callsubr
          234 -26 callsubr
          -87 callgsubr
          160 -1169 -98 callsubr
        </CharString>
        <CharString name="acircumflexacute">
          1205 873 -10 callsubr
          -311 vmoveto
          57 callsubr
          129 -1228 -98 callsubr
        </CharString>
        <CharString name="acircumflexdotbelow">
          1205 323 -23 callsubr
          234 -26 callsubr
          -87 callgsubr
          160 -1169 39 callsubr
          219 -718 -74 callsubr
        </CharString>
        <CharString name="acircumflexgrave">
          1205 246 63 callsubr
          -590 vmoveto
          57 callsubr
          129 -1228 -98 callsubr
        </CharString>
        <CharString name="acircumflexhookabove">
          1205 800 1692 rmoveto
          -83 -74 -34 -43 -42 hvcurveto
          -67 vlineto
          16 27 52 170 callsubr
          -93 160 callsubr
          129 -1228 -98 callsubr
        </CharString>
        <CharString name="acircumflextilde">
          1205 688 55 callsubr
          215 callsubr
          -442 -337 rmoveto
          57 callsubr
          129 -1228 -98 callsubr
        </CharString>
        <CharString name="acute">
          1024 464 -80 callsubr
          -21 callsubr
          endchar
        </CharString>
        <CharString name="acutecmb">
          0 -48 -80 callsubr
          -21 callsubr
          endchar
        </CharString>
        <CharString name="acutecmb.short">
          0 -34 1117 rmoveto
          365 292 rlineto
          9 -49 callsubr
          endchar
        </CharString>
        <CharString name="acutedotaccentcmb">
          15 callgsubr
          314 -189 rmoveto
          181 vlineto
          -628 -194 rlineto
          -84 vlineto
          endchar
        </CharString>
        <CharString name="acutedotaccentcmb.short">
          0 1769 vmoveto
          67 52 44 59 61 -52 43 -67 -66 -53 -43 -61 -59 52 -44 67 hvcurveto
          322 -150 rmoveto
          153 vlineto
          -643 -165 rlineto
          -71 vlineto
          endchar
        </CharString>
        <CharString name="acyrillic">
          1205 375 -22 -98 callsubr
        </CharString>
        <CharString name="adblgrave">
          1205 334 69 callsubr
          -74 callgsubr
          113 hlineto
          -429 -1169 -98 callsubr
        </CharString>
        <CharString name="adieresis">
          1205 317 72 callsubr
          -87 -71 -63 -87 -87 70 -63 88 hvcurveto
          485 hmoveto
          87 71 63 87 87 -71 63 -87 -88 -71 -63 -87 -87 71 -63 88 hvcurveto
          -427 -1213 -98 callsubr
        </CharString>
        <CharString name="adieresismacron">
          1205 245 1485 rmoveto
          628 143 -628 hlineto
          139 -490 rmoveto
          64 52 47 64 64 -52 47 -64 hvcurveto
          -13 hlineto
          -65 -51 -47 -64 -64 51 -47 65 hvcurveto
          377 hmoveto
          64 52 47 64 64 -52 47 -64 hvcurveto
          -13 hlineto
          -65 -51 -47 -64 -64 51 -47 65 hvcurveto
          -360 -1160 -98 callsubr
        </CharString>
        <CharString name="adotaccent">
          1205 559 40 callgsubr
          -184 -1203 -98 callsubr
        </CharString>
        <CharString name="adotbelow">
          1205 375 -22 39 callsubr
          219 -718 -74 callsubr
        </CharString>
        <CharString name="adotmacron">
          1205 245 1472 91 callsubr
          314 -483 rmoveto
          71 55 51 71 71 -55 52 -71 -70 -56 -52 -71 -71 56 -51 70 hvcurveto
          -184 -1155 -98 callsubr
        </CharString>
        <CharString name="ae">
          1717 383 -22 145 callsubr
        </CharString>
        <CharString name="aeacute">
          1717 830 -80 callsubr
          -21 callsubr
          -339 -1169 145 callsubr
        </CharString>
        <CharString name="aemacron">
          1717 544 -58 callsubr
          -161 -1436 145 callsubr
        </CharString>
        <CharString name="agrave">
          1205 609 1147 rmoveto
          107 hlineto
          -144 388 rlineto
          -352 -12 hlineto
          155 -1545 -98 callsubr
        </CharString>
        <CharString name="ahookabove">
          1205 605 -107 callgsubr
          1 -74 rlineto
          23 29 53 18 56 hhcurveto
          73 46 -32 callgsubr
          193 71 74 69 90 vvcurveto
          100 -92 68 -132 vhcurveto
          -230 -1567 -98 callsubr
        </CharString>
        <CharString name="ainvertedbreve">
          1205 559 1528 rmoveto
          178 callsubr
          99 vlineto
          3 19 2 21 23 vvcurveto
          162 -118 150 -220 vhcurveto
          -184 -1550 -98 callsubr
        </CharString>
        <CharString name="alphagreek">
          1359 478 -21 188 callsubr
        </CharString>
        <CharString name="alphatonosgreek">
          1359 683 -32 callsubr
          -93 -1168 188 callsubr
        </CharString>
        <CharString name="amacron">
          1205 226 -58 callsubr
          149 -1436 -98 callsubr
        </CharString>
        <CharString name="ampersand">
          1676 530 -26 rmoveto
          190 137 81 148 144 hvcurveto
          204 -203 rlineto
          448 81 hlineto
          -74 24 -67 47 -186 184 rrcurveto
          -116 114 129 160 139 171 50 33 105 14 rlinecurve
          86 vlineto
          -455 -1 rlineto
          -86 vlineto
          130 -19 20 -39 -92 -136 rrcurveto
          -84 -125 -318 316 -7 6 -6 6 -6 6 rlinecurve
          212 76 120 109 143 vvcurveto
          174 -152 129 -261 -282 -177 -160 -198 -116 49 -96 113 -131 vhcurveto
          -239 -78 -123 -140 -1 -185 rrcurveto
          -234 190 -161 266 vhcurveto
          47 1228 rmoveto
          97 65 57 92 101 60 -84 -116 -2 vhcurveto
          -1 -105 -43 -86 -94 -62 rrcurveto
          -132 136 -46 74 89 vvcurveto
          -202 -704 rmoveto
          90 38 69 81 52 vhcurveto
          33 -35 38 -38 41 -41 343 -340 rcurveline
          -66 -77 -75 -27 -82 hhcurveto
          -187 -152 138 198 -1 hvcurveto
          endchar
        </CharString>
        <CharString name="anoteleiagreek">
          571 285 673 rmoveto
          53 callgsubr
          endchar
        </CharString>
        <CharString name="aogonek">
          1204 375 -22 rmoveto
          164 129 69 97 52 hvcurveto
          -99 26 105 -57 121 6 7 0 6 hhcurveto
          -192 -104 -67 -93 -100 vvcurveto
          -110 95 -68 123 97 92 40 63 43 vhcurveto
          84 vlineto
          -16 -16 -32 -10 -35 hhcurveto
          -52 -45 33 68 86 55 78 121 99 hvcurveto
          81 vlineto
          -4 -12 -16 -2 -18 hhcurveto
          -54 -44 33 84 hvcurveto
          452 vlineto
          246 -172 108 -284 -280 -186 -114 -144 -82 65 -56 87 88 66 62 81 49 -25 42 -38 25 vhcurveto
          12 37 41 7 44 hhcurveto
          146 87 -66 -173 hvcurveto
          -78 vlineto
          -214 -45 rlineto
          -309 -65 -113 -106 -155 vvcurveto
          -148 121 -104 180 vhcurveto
          23 305 rmoveto
          101 60 64 167 38 vhcurveto
          85 18 rlineto
          -292 vlineto
          -50 -30 -59 -32 -73 hhcurveto
          -85 -65 55 98 hvcurveto
          endchar
        </CharString>
        <CharString name="approxequal">
          1255 888 804 rmoveto
          -145 -177 231 -195 hhcurveto
          -183 -115 -128 -17 callgsubr
          -164 -1 -57 -66 -90 hhcurveto
          -504 vmoveto
          22 callgsubr
          -164 -1 -57 -66 -90 hhcurveto
          endchar
        </CharString>
        <CharString name="aring">
          1205 253 1345 rmoveto
          -128 131 36 callgsubr
          -131 -87 -127 vhcurveto
          206 hmoveto
          75 68 callgsubr
          -84 -1367 -98 callsubr
        </CharString>
        <CharString name="aringacute">
          1205 873 1530 -37 callgsubr
          352 -14 callgsubr
          -44 hlineto
          -46 -26 28 39 40 27 27 45 hvcurveto
          44 hlineto
          46 26 -27 -40 -39 -26 -28 -46 hvcurveto
          -206 -1211 -98 callsubr
        </CharString>
        <CharString name="aringbelow">
          1205 375 -22 39 callsubr
          -88 -575 rmoveto
          -116 131 -76 176 175 131 76 117 115 -131 77 -175 -176 -131 -77 -116 vhcurveto
          207 hmoveto
          65 42 45 58 57 42 -44 -65 -66 -42 -44 -57 -58 -42 44 65 vhcurveto
          endchar
        </CharString>
        <CharString name="asciicircum">
          1255 583 1444 rmoveto
          -466 -595 116 -109 392 498 392 -498 122 109 -466 595 rlineto
          endchar
        </CharString>
        <CharString name="asciitilde">
          1255 888 550 rmoveto
          22 callgsubr
          -163 -1 -57 -67 -90 hhcurveto
          endchar
        </CharString>
        <CharString name="asterisk">
          841 402 1115 rmoveto
          36 hlineto
          65 200 rlineto
          96 36 -59 62 -59 hhcurveto
          -62 -57 -61 -97 36 hvcurveto
          103 -201 rmoveto
          18 -32 202 45 rlineto
          102 17 23 81 -30 51 -31 54 -81 20 -65 -81 rrcurveto
          -197 -187 rmoveto
          17 32 -137 155 rlineto
          -65 80 -82 -20 -30 -53 -31 -53 23 -79 103 -18 rrcurveto
          219 -79 rmoveto
          -17 32 -202 -45 rlineto
          -102 -17 -23 -81 30 -52 31 -54 81 -19 65 81 rrcurveto
          197 187 rmoveto
          -17 -32 137 -155 rlineto
          64 -81 83 21 30 52 31 54 -23 79 -102 17 rrcurveto
          -224 11 rmoveto
          -35 hlineto
          -64 -200 rlineto
          -96 -37 59 -61 60 hhcurveto
          61 57 60 97 -36 hvcurveto
          endchar
        </CharString>
        <CharString name="at">
          2062 564 384 rmoveto
          -214 88 -124 147 126 117 79 154 69 vhcurveto
          -3 -3 -16 -4 vvcurveto
          -142 -6 80 -96 190 hhcurveto
          341 263 285 400 443 -355 303 -517 -596 -423 -461 -559 -523 372 -327 457 178 181 47 76 94 hvcurveto
          86 vlineto
          -74 -130 -137 -21 -163 hhcurveto
          -410 -312 280 462 492 374 409 517 450 291 -255 -394 -336 -206 -194 -173 -80 -27 40 106 22 hvcurveto
          145 678 -167 0 -120 -117 rlineto
          85 -33 -75 56 -113 hhcurveto
          -271 -185 -308 -313 hvcurveto
          290 -1 rmoveto
          212 99 299 150 64 39 -50 -86 -3 vhcurveto
          -69 -323 rlineto
          -124 -26 -80 -101 -83 hhcurveto
          -62 -29 65 108 hvcurveto
          endchar
        </CharString>
        <CharString name="atilde">
          1205 694 1184 rmoveto
          115 88 90 232 -5 hvcurveto
          -99 hlineto
          -98 -2 -24 -36 -46 hhcurveto
          -30 -26 14 26 -37 hvcurveto
          -32 23 rlineto
          41 -58 -49 24 -65 hhcurveto
          -115 120 callsubr
          -319 -1206 -98 callsubr
        </CharString>
        <CharString name="austral">
          1486 210 301 rmoveto
          -61 -171 -28 -27 -117 -17 rrcurveto
          -86 455 86 vlineto
          -147 21 -23 32 54 160 rrcurveto
          28 83 535 0 30 -89 52 -153 -22 -34 -146 -20 rlinecurve
          -86 666 86 vlineto
          -113 16 -31 29 -58 160 -32 91 rcurveline
          234 72 -260 hlineto
          -74 205 rlineto
          334 72 -360 hlineto
          -257 715 -247 0 -257 -715 rlineto
          -361 -72 335 hlineto
          -74 -205 rlineto
          -261 -72 235 hlineto
          250 349 rmoveto
          149 443 150 -443 rlineto
          -393 -277 rmoveto
          69 205 348 0 70 -205 rlineto
          endchar
        </CharString>
        <CharString name="austral.tnum">
          1259 -3 450 rmoveto
          -72 189 vlineto
          -23 -79 -50 -170 -20 -31 -95 -12 rlinecurve
          -86 378 86 vlineto
          -119 15 -15 27 46 169 rrcurveto
          22 81 417 0 23 -85 45 -164 -15 -27 -122 -16 rlinecurve
          -86 603 86 vlineto
          -94 12 -19 31 -49 164 -25 85 rcurveline
          188 72 -209 hlineto
          -61 204 rlineto
          270 73 -291 hlineto
          -211 718 -259 0 -212 -718 rlineto
          -292 -73 271 hlineto
          -61 -204 rlineto
          199 277 rmoveto
          114 413 112 -413 rlineto
          -302 -277 rmoveto
          56 204 266 0 56 -204 rlineto
          endchar
        </CharString>
        <CharString name="b">
          -99 callgsubr
          95 callsubr
          endchar
        </CharString>
        <CharString name="backslash">
          748 524 -280 rmoveto
          198 hlineto
          -498 1860 rlineto
          -198 hlineto
          endchar
        </CharString>
        <CharString name="baht">
          1444 63 30 rmoveto
          644 -219 73 220 hlineto
          322 11 258 137 256 vvcurveto
          215 -174 122 -264 16 vhcurveto
          203 18 174 97 190 vvcurveto
          198 -184 114 -335 8 vhcurveto
          219 -73 -218 -644 -86 vlineto
          52 callgsubr
          483 1199 rmoveto
          108 -3 rlineto
          19 17 -2 -2 17 hvcurveto
          -503 vlineto
          -6 -7 0 -7 hhcurveto
          -141 hlineto
          414 253 rmoveto
          -137 -65 -80 -115 -26 vhcurveto
          479 vlineto
          123 -35 57 -84 -117 vvcurveto
          -414 -352 rmoveto
          141 -1 rlineto
          7 7 0 -1 6 hvcurveto
          -569 vlineto
          -1 -17 -18 -2 -18 hhcurveto
          -108 -3 rlineto
          465 295 rmoveto
          -149 -84 -92 -147 -35 vhcurveto
          548 vlineto
          150 -29 81 -99 -144 vvcurveto
          endchar
        </CharString>
        <CharString name="baht.tnum">
          1259 38 37 rmoveto
          586 -226 72 227 hlineto
          293 12 241 136 244 25 callgsubr
          184 -164 111 -310 9 vhcurveto
          227 -72 -226 -586 -86 vlineto
          33 callgsubr
          453 1186 rmoveto
          94 -2 rlineto
          13 13 -1 -2 13 hvcurveto
          -499 vlineto
          -1 -7 -7 0 -7 hhcurveto
          -112 hlineto
          362 259 rmoveto
          -130 -55 -85 -102 -31 vhcurveto
          472 vlineto
          102 -34 55 -79 -113 vvcurveto
          -362 -357 rmoveto
          112 hlineto
          7 7 -1 7 hhcurveto
          -566 vlineto
          -1 -13 -13 -1 -13 hhcurveto
          -94 -2 rlineto
          413 288 rmoveto
          -145 -81 -91 -127 -34 vhcurveto
          542 vlineto
          134 -30 74 -96 -146 vvcurveto
          endchar
        </CharString>
        <CharString name="bar">
          748 275 -280 rmoveto
          198 1860 -198 hlineto
          endchar
        </CharString>
        <CharString name="bdotaccent">
          1297 317 1612 -76 callgsubr
          900 -1093 rmoveto
          95 callsubr
          endchar
        </CharString>
        <CharString name="bdotbelow">
          -99 callgsubr
          95 callsubr
          -226 -927 -74 callsubr
        </CharString>
        <CharString name="becyrillic">
          1306 1227 501 rmoveto
          302 -209 195 -329 -225 -167 -114 -167 -78 vhcurveto
          -3 26 -1 27 29 vvcurveto
          194 87 154 331 29 vhcurveto
          126 12 315 28 89 88 15 226 rlinecurve
          -86 hlineto
          -19 -50 -53 -12 -229 -25 -235 -25 -146 -64 -112 -103 rrcurveto
          -137 -128 -76 -204 -317 vvcurveto
          -373 194 -251 368 313 267 201 322 vhcurveto
          -346 -14 rmoveto
          -263 -80 -133 -142 -142 -81 161 242 246 76 148 150 136 83 -155 -246 vhcurveto
          endchar
        </CharString>
        <CharString name="betagreek">
          1274 129 -460 rmoveto
          338 hlineto
          -4 209 -4 182 -3 160 rrcurveto
          -64 55 103 -50 127 hhcurveto
          231 221 153 285 267 -168 171 -228 28 hvcurveto
          166 17 157 108 178 vvcurveto
          199 -163 141 -306 -303 -217 -158 -396 vhcurveto
          314 121 rmoveto
          207 59 109 139 120 61 -97 -153 -161 -89 -90 -172 -5 vhcurveto
          -222 vlineto
          204 -6 117 -114 -192 vvcurveto
          -175 -104 -83 -127 -85 -75 34 53 -39 vhcurveto
          -8 486 -1 257 152 vvcurveto
          endchar
        </CharString>
        <CharString name="bitcoin">
          1430 63 30 rmoveto
          482 -219 73 219 107 hlineto
          34 34 1 3 34 hvcurveto
          -223 72 232 vlineto
          258 40 191 132 220 vvcurveto
          215 -175 122 -263 16 vhcurveto
          203 18 173 97 190 vvcurveto
          170 -136 108 -251 33 vhcurveto
          228 -72 -221 vlineto
          2 -33 -34 1 -35 hhcurveto
          -107 218 -73 -218 -482 -86 hlineto
          52 callgsubr
          884 942 rmoveto
          -171 -100 -81 -173 -1 vhcurveto
          -128 510 hlineto
          96 -3 rlineto
          210 -7 95 -96 -151 vvcurveto
          52 -634 rmoveto
          -187 -133 -98 -224 -7 vhcurveto
          -96 -3 0 577 128 -1 rlineto
          209 -2 116 -107 -172 vvcurveto
          endchar
        </CharString>
        <CharString name="bitcoin.tnum">
          1259 38 37 rmoveto
          428 -226 72 226 118 hlineto
          29 29 2 2 28 hvcurveto
          -230 73 239 vlineto
          236 40 179 130 210 25 callgsubr
          159 -122 105 -234 31 vhcurveto
          235 -72 -228 vlineto
          2 -27 -29 1 -30 hhcurveto
          -118 225 -72 -225 -428 -86 hlineto
          33 callgsubr
          811 940 rmoveto
          -165 -89 -93 -161 -1 vhcurveto
          -104 505 hlineto
          86 -2 rlineto
          173 -5 95 -90 -149 vvcurveto
          51 -643 rmoveto
          -181 -130 -96 -189 -6 vhcurveto
          -86 -2 rlineto
          571 104 vlineto
          192 -2 109 -109 -175 vvcurveto
          endchar
        </CharString>
        <CharString name="blinebelow">
          -99 callgsubr
          95 callsubr
          -537 -862 2 callsubr
        </CharString>
        <CharString name="braceleft">
          748 508 1010 rmoveto
          216 vlineto
          150 19 118 170 vhcurveto
          86 -45 vlineto
          -293 -139 -130 -237 hvcurveto
          -313 vlineto
          -154 -75 -55 -118 vhcurveto
          -80 vlineto
          118 75 -55 -156 hvcurveto
          -312 vlineto
          -238 139 -130 293 vhcurveto
          45 86 hlineto
          -170 -19 118 150 hvcurveto
          217 vlineto
          220 -111 110 -218 30 vhcurveto
          218 29 111 110 220 vvcurveto
          endchar
        </CharString>
        <CharString name="braceright">
          748 239 1010 rmoveto
          -220 111 -110 218 -29 vhcurveto
          -217 -30 -112 -110 -220 vvcurveto
          -217 vlineto
          -150 -19 -118 -169 vhcurveto
          -86 44 vlineto
          293 139 130 238 hvcurveto
          312 vlineto
          156 76 55 117 vhcurveto
          80 vlineto
          -117 -76 55 154 hvcurveto
          313 vlineto
          237 -139 130 -293 vhcurveto
          -44 -86 hlineto
          169 19 -118 -150 hvcurveto
          endchar
        </CharString>
        <CharString name="bracketleft">
          748 177 -282 rmoveto
          513 2 0 86 -230 5 0 1678 230 5 0 86 -513 2 rlineto
          endchar
        </CharString>
        <CharString name="bracketright">
          748 570 1582 rmoveto
          -513 -2 0 -86 231 -5 0 -1678 -231 -5 0 -86 513 -2 rlineto
          endchar
        </CharString>
        <CharString name="breve">
          1024 512 61 callsubr
          -4 19 hvcurveto
          -98 -44 callsubr
          -11 callsubr
          endchar
        </CharString>
        <CharString name="breveacutecmb">
          -85 callgsubr
          314 -311 -2 callsubr
          107 callsubr
        </CharString>
        <CharString name="breveacutecmb.short">
          0 322 86 callsubr
          321 -255 104 callsubr
        </CharString>
        <CharString name="brevebelowcmb">
          0 -460 vmoveto
          204 110 135 146 20 -2 20 -3 17 hvcurveto
          -91 -5 hlineto
          -89 -87 -65 -131 -130 -88 65 89 vhcurveto
          5 -91 vlineto
          -3 -17 -2 -20 -20 vvcurveto
          -146 110 -135 204 vhcurveto
          endchar
        </CharString>
        <CharString name="brevecmb">
          0 1163 vmoveto
          220 117 149 163 22 -1 22 -4 19 hvcurveto
          -98 -44 callsubr
          -11 callsubr
          endchar
        </CharString>
        <CharString name="brevecmb.short">
          0 1145 vmoveto
          200 108 131 140 20 -1 19 -64 callgsubr
          63 87 -81 callgsubr
          -20 vvcurveto
          -140 109 -131 200 vhcurveto
          endchar
        </CharString>
        <CharString name="brevecyrilliccmb">
          0 1156 vmoveto
          211 callsubr
          141 -116 206 vhcurveto
          endchar
        </CharString>
        <CharString name="brevecyrilliccmb.short">
          0 1570 vmoveto
          -45 callgsubr
          -73 -51 -77 callgsubr
          -43 hvcurveto
          43 16 30 43 50 vvcurveto
          67 -51 102 callgsubr
          endchar
        </CharString>
        <CharString name="brevegravecmb">
          -72 callgsubr
          314 -590 -2 callsubr
          107 callsubr
        </CharString>
        <CharString name="brevegravecmb.short">
          0 -322 1868 74 callsubr
          322 -492 104 callsubr
        </CharString>
        <CharString name="brevehookabovecmb">
          0 -9 136 callsubr
          27 52 170 callsubr
          -92 56 -117 vhcurveto
          9 -574 -2 callsubr
          107 callsubr
        </CharString>
        <CharString name="brevehookabovecmb.short">
          0 -9 2015 rmoveto
          -86 -75 -30 -36 -45 hvcurveto
          -57 vlineto
          13 29 53 13 49 hhcurveto
          73 39 -24 -35 -34 -37 -25 -85 -16 hvcurveto
          77 -44 rlineto
          141 25 81 44 80 vvcurveto
          78 -94 48 -120 vhcurveto
          9 -485 104 callsubr
        </CharString>
        <CharString name="brevetildecmb">
          0 129 55 callsubr
          -30 8 14 -38 vhcurveto
          171 callsubr
          -65 callgsubr
          -129 -337 -2 callsubr
          107 callsubr
        </CharString>
        <CharString name="brevetildecmb.short">
          0 132 1812 rmoveto
          115 75 67 124 hvcurveto
          -99 hlineto
          -45 -1 -27 -19 -46 hhcurveto
          -27 -30 82 callgsubr
          -76 -68 -124 1 hvcurveto
          99 hlineto
          45 27 20 46 28 -66 callgsubr
          -132 -282 104 callsubr
        </CharString>
        <CharString name="brokenbar">
          748 275 789 rmoveto
          198 791 -198 hlineto
          -1860 vmoveto
          198 791 -198 hlineto
          endchar
        </CharString>
        <CharString name="bullet">
          798 399 340 rmoveto
          141 115 115 141 141 -115 115 -141 -140 -115 -115 -141 -141 115 -115 140 hvcurveto
          endchar
        </CharString>
        <CharString name="c">
          1093 619 -22 13 callsubr
        </CharString>
        <CharString name="cacute">
          1093 581 -33 callsubr
          146 -1169 13 callsubr
        </CharString>
        <CharString name="caret">
          571 248 hmoveto
          -297 -363 94 -93 238 291 241 -292 97 93 -296 364 rlineto
          endchar
        </CharString>
        <CharString name="caron">
          1024 749 -65 callsubr
          -68 callgsubr
          235 388 rlineto
          endchar
        </CharString>
        <CharString name="caroncmb">
          0 237 -65 callsubr
          -68 callgsubr
          235 388 rlineto
          endchar
        </CharString>
        <CharString name="caroncmb.short">
          0 234 1425 rmoveto
          -219 -143 56 callsubr
          endchar
        </CharString>
        <CharString name="carondotaccentcmb">
          15 callgsubr
          313 19 callgsubr
          endchar
        </CharString>
        <CharString name="carondotaccentcmb.short">
          0 1790 vmoveto
          67 52 44 60 60 -52 44 -67 -66 -53 -44 -60 -60 52 -1 callgsubr
          endchar
        </CharString>
        <CharString name="caronslovak">
          1024 454 1119 144 callsubr
          endchar
        </CharString>
        <CharString name="caronslovakcmb">
          0 104 1119 rmoveto
          204 420 -244 0 -46 -420 rlineto
          endchar
        </CharString>
        <CharString name="ccaron">
          1093 865 -65 callsubr
          27 callsubr
          -354 -1566 13 callsubr
        </CharString>
        <CharString name="ccedilla">
          1093 579 -478 -92 callgsubr
          64 75 164 9 136 61 73 90 rlinecurve
          151 callsubr
          -300 207 -192 268 -27 vhcurveto
          -110 -132 -30 callsubr
          116 callsubr
        </CharString>
        <CharString name="ccedillaacute">
          1093 581 -33 callsubr
          106 -1625 -92 callgsubr
          64 75 164 9 136 61 73 90 rlinecurve
          151 callsubr
          -300 207 -192 268 -27 vhcurveto
          -110 -132 -30 callsubr
          116 callsubr
        </CharString>
        <CharString name="ccircumflex">
          1093 392 -23 callsubr
          234 -26 callsubr
          31 callsubr
          335 -1169 13 callsubr
        </CharString>
        <CharString name="cdotaccent">
          1093 628 -73 callsubr
          -70 callsubr
          -9 -1203 13 callsubr
        </CharString>
        <CharString name="cedi">
          1359 782 -189 rmoveto
          73 201 hlineto
          169 4 167 44 81 57 11 337 rcurveline
          -81 hlineto
          -242 -57 -117 -84 -169 hhcurveto
          -4 1189 hlineto
          1 1 0 2 hhcurveto
          174 111 -97 -227 54 hvcurveto
          81 hlineto
          -11 337 -91 55 -137 43 -185 4 rlinecurve
          200 -73 -200 vlineto
          -404 -17 -281 -267 -426 vvcurveto
          -425 291 -266 394 -18 vhcurveto
          -337 730 rmoveto
          323 123 206 214 38 vhcurveto
          -1174 vlineto
          -211 45 -126 235 327 vvcurveto
          endchar
        </CharString>
        <CharString name="cedi.tnum">
          1259 729 -189 rmoveto
          72 201 hlineto
          153 6 147 39 79 48 11 336 rcurveline
          -81 hlineto
          -232 -54 -106 -82 -149 hhcurveto
          1189 1 vlineto
          143 103 -92 -218 50 hvcurveto
          81 hlineto
          -11 336 -84 48 -122 37 -161 5 rlinecurve
          200 -72 -200 vlineto
          -378 -17 -265 -269 -424 vvcurveto
          -443 276 -251 367 -16 vhcurveto
          -296 731 rmoveto
          324 106 202 190 40 vhcurveto
          -1174 vlineto
          -190 45 -106 223 340 vvcurveto
          endchar
        </CharString>
        <CharString name="cedilla">
          1024 479 -478 rmoveto
          142 128 66 125 125 -111 66 -132 hvcurveto
          -4 -4 0 -4 hhcurveto
          81 96 rlineto
          45 -70 vlineto
          -161 -196 -30 callsubr
          -26 -48 -48 -46 -26 -63 -52 -52 15 20 -29 hvcurveto
          -1 -83 rlineto
          -41 45 80 -27 95 hhcurveto
          endchar
        </CharString>
        <CharString name="cedillacmb">
          0 -33 -478 rmoveto
          -12 callsubr
          80 93 rlineto
          44 -70 vlineto
          -161 -192 rlineto
          59 callsubr
          -52 15 20 -29 hvcurveto
          -1 -83 rlineto
          -41 45 80 -27 95 hhcurveto
          endchar
        </CharString>
</ttFont>
